<svg width="1354" height="1038" fill="none" xmlns="http://www.w3.org/2000/svg"><g clip-path="url(#a)"><path d="M734.24 22.23c.18-3.48 2.55-5.08 6.18-4.5a.4.4 0 0 0 .46-.36l.04-.3q.007-.075-.015-.149a.38.38 0 0 0-.196-.223.4.4 0 0 0-.149-.038l-19.6-1.07a.45.45 0 0 0-.48.42l-.01.26a.27.27 0 0 0 .065.2.26.26 0 0 0 .185.09c3.43.19 8.1.3 7.85 5.07q-1.46 27.74-2.73 52.01c-.24 4.57-1.11 15.05-7.64 13.6a1.4 1.4 0 0 1-.78-.46c-1.9-2.16-2.89-5.37-6.67-3.92a1.28 1.28 0 0 0-.73.68c-2.85 6.1 7.24 5.81 10.46 5.04 8.05-1.93 10.76-10.21 11.15-17.55q1.32-24.34 2.61-48.8ZM589.72 65.45q-11.81-5.86-20.35-14.39a.55.55 0 0 1-.162-.392.53.53 0 0 1 .172-.388c3.63-3.35 7.84-7.51 9.65-12.23 2.64-6.85-1.44-13.63-9.26-12.75-10.35 1.18-15.91 10.49-11.36 20.1q2.01 4.25 5.46 7.77a.8.8 0 0 1 0 1.12q-4.04 4.09-6.6 8.83c-4.55 8.42.99 18.02 10.55 18.5q10.42.51 18.3-6.62c1.1-1 1.89-2.44 2.98-3.51q.35-.34.78-.11c4.1 2.23 8.85 4.26 13.76 3.2q3.39-.73 6.65-1.29a.8.8 0 0 0 .27-.11q.45-.29.34-.71a.47.47 0 0 0-.144-.234.44.44 0 0 0-.246-.106q-9.07-.95-18.32-5.48-.46-.23-.3-.72a64.6 64.6 0 0 0 2.89-12.99c.54-4.62 1.62-6.49 6.26-7.02a.45.45 0 0 0 .39-.43v-.35a.4.4 0 0 0-.299-.386.4.4 0 0 0-.171-.004l-16.98 3.34a.5.5 0 0 0-.367.306.5.5 0 0 0 .057.474l.16.22a.25.25 0 0 0 .112.094q.071.03.148.016 5.53-1.09 6.65 4.14 1.18 5.59-.38 11.81-.14.55-.64.3ZM833.3 29.42q-9.65-4.04-20.05-1.96c-14.87 2.99-23.22 15.51-21.6 30.26 2.9 26.31 37.5 31.07 51.66 11.38 6.21-8.64 6.68-21.2.79-30.19q-4.47-6.83-10.8-9.49Zm80.12 30.05q.38-.96.71.02a82346 82346 0 0 1 19.19 57.82q.15.46.61.53a.72.72 0 0 0 .465-.085.7.7 0 0 0 .305-.355q8.11-21.01 16.12-41.56c1.5-3.86 4.4-6.75 8.72-4.96a.43.43 0 0 0 .343.005.45.45 0 0 0 .247-.245l.13-.3q.15-.32-.18-.45l-13.85-5.36q-.111-.04-.18.05l-.24.28q-.35.41.14.65 5.53 2.61 3.28 8.54-6.39 16.89-12.81 33.2-.35.9-.65-.02l-17.08-52.96a1.1 1.1 0 0 0-.65-.69l-9.82-3.83a.52.52 0 0 0-.66.24l-.13.26q-.1.2.09.31 3.37 1.91 4.82 4.92.23.48.03.97a11982 11982 0 0 1-14.03 36.13c-1.62 4.17-3.92 7.32-9.09 5.43a.29.29 0 0 0-.39.25l-.02.27q-.04.45.39.62l13.61 5.27a.24.24 0 0 0 .196-.009.28.28 0 0 0 .134-.151l.1-.29q.17-.51-.32-.72c-4.31-1.79-4.34-5.44-2.89-9.24a3220 3220 0 0 1 13.36-34.54Zm-505.6 54.85 17.1-8.42q.49-.24.91.1 6.65 5.32 13.78 11.02 1.41 1.14 2.2 2.61a1.95 1.95 0 0 1-.63 2.53l-3.62 2.44q-.17.11-.06.29l.14.22q.28.45.74.18a120 120 0 0 1 16.11-7.88q.56-.22.43-.81l-.08-.33q-.06-.28-.33-.18c-4.3 1.67-7.69-.75-10.83-3.21a5574 5574 0 0 1-38.94-30.77q-.46-.37-.96-.02a.6.6 0 0 0-.203.232.65.65 0 0 0-.067.308q1 19.49 2.37 41.9.37 6.06.04 11.07-.29 4.43-4.65 6.78-.22.12-.08.33l.16.25c.074.12.192.206.331.24a.55.55 0 0 0 .409-.06q8.39-4.85 16.86-8.25.54-.22.26-.73l-.16-.27q-.17-.32-.5-.15c-5.44 2.87-10.09 1.94-10.44-4.98q-.34-6.78-.77-13.61-.04-.58.48-.83Zm599.56 13.04 16.46 9.81q.12.07.18.189c.04.078.06.165.05.251q-.735 9.72-1.92 19.02c-.6 4.66-4.48 2.73-6.83 1.28a.48.48 0 0 0-.3-.072.45.45 0 0 0-.28.132l-.25.24a.4.4 0 0 0-.09.147.34.34 0 0 0-.02.173.4.4 0 0 0 .06.159c.03.047.08.085.13.111a126 126 0 0 1 15.75 9.48.56.56 0 0 0 .54.067.56.56 0 0 0 .35-.417l.06-.28c.02-.087-.01-.157-.08-.21-3.57-2.7-3.56-6.86-3.18-10.87 1.66-17.66 3.21-34.14 4.64-49.44a.68.68 0 0 0-.12-.43c-.32-.46-.73-.507-1.22-.14-14.65 10.82-27.95 20.513-39.91 29.08-3.54 2.53-7.24 3.71-11.04 1.52q-.19-.11-.34.05l-.26.29a.42.42 0 0 0-.104.368.44.44 0 0 0 .234.312 141 141 0 0 1 16.46 9.8q.19.13.36-.02l.27-.22a.44.44 0 0 0 .154-.36.45.45 0 0 0-.194-.34c-5.27-3.57-7.47-7.29-1.43-11.7q5.8-4.23 10.81-7.93c.35-.253.7-.27 1.06-.05Zm-691.1 15.01c-1.67-5.42 3.2-9.69 8.03-11.06 4.53-1.27 9.55 1.75 12.8 4.77q.09.08.18 0l.25-.21q.4-.35.07-.77l-5.81-7.32a1.49 1.49 0 0 0-1.47-.53q-7.98 1.64-13.03 6.87c-3.89 4.03-5.76 10.04-3.12 15.22q4.11 8.1 14.28 7.63 6.05-.27 12.16-.42 8.12-.19 12.72 7.02 2.57 4.02.48 7.87-4.77 8.78-14.65 6.45-4.53-1.06-9.77-5.51-.16-.13-.36-.04l-.29.14a.42.42 0 0 0-.236.288.43.43 0 0 0 .086.362q3.93 4.63 7.39 8.73.91 1.08 2.53.78 9.17-1.71 14.89-8.08 6.26-6.96 3.44-14.7-3.49-9.58-15.18-9.09-6.49.27-12.85.43-9.74.24-12.54-8.83Zm801.04 33.45c1.6-1.92 3.46-2.48 5.64-.96q3.825 2.66 6.18 5.53c3.75 4.54 1 9.29-1.98 13.27-.09.113-.07.217.04.31l.22.18c.1.081.22.121.35.114a.52.52 0 0 0 .33-.154l9.9-10.68c.77-.833.6-1.173-.53-1.02-.69.1-1.23.33-1.92-.02-1.41-.733-2.83-1.667-4.25-2.8q-14.22-11.43-26.82-22.66a3 3 0 0 1-.84-1.318 3 3 0 0 1-.04-1.572.53.53 0 0 0-.12-.51c-.21-.247-.42-.257-.65-.03l-10.65 10.79q-.135.14 0 .28l.19.19a.55.55 0 0 0 .76.03c8.12-7.05 13.68-4.89 20.51 2.46 1.58 1.7.18 3.91-1.05 5.37q-12.18 14.47-25.92 30.84c-3.27 3.9-6.61.95-9.4-1.39a.26.26 0 0 0-.15-.056.27.27 0 0 0-.16.046l-.25.17c-.3.2-.31.413-.04.64l16.75 14.08c.04.037.1.056.16.055a.26.26 0 0 0 .16-.065l.24-.21a.4.4 0 0 0 .1-.142.35.35 0 0 0 .04-.173.35.35 0 0 0-.04-.173.4.4 0 0 0-.1-.142c-3.54-3-6.27-5.11-2.39-9.71 8.73-10.327 17.3-20.517 25.73-30.57Zm-857.73 11.43c-2.56-2.87-.05-5.86 2.34-7.86q.18-.15.07-.36l-.14-.25a.52.52 0 0 0-.377-.258.5.5 0 0 0-.433.148 196 196 0 0 1-14.5 13.07q-.52.42.02.82l.21.17a.34.34 0 0 0 .216.064.33.33 0 0 0 .204-.084c2.34-2.18 5.36-4.61 8.29-1.39q14.31 15.72 27.86 30.75 1.27 1.41 1.62 3.18c.071.342.022.696-.14 1q-1.28 2.38-3.56 4.29a.28.28 0 0 0-.104.222.3.3 0 0 0 .104.228l.22.19a.44.44 0 0 0 .58-.01l14.6-13.24q.29-.27.04-.57l-.2-.24a.26.26 0 0 0-.281-.081.3.3 0 0 0-.089.051c-2.51 2.22-5.29 4.65-7.96 1.75a2850 2850 0 0 1-28.59-31.59Zm917.31 81.78c.13.153.16.32.07.5-2.2 4.727-4.39 9.62-6.56 14.68q-1.065 2.46-2.58 4.23a1.85 1.85 0 0 1-2.33.39c-1.25-.733-2.36-1.687-3.35-2.86-.25-.293-.51-.31-.8-.05l-.21.19c-.02.023-.05.05-.06.081a.3.3 0 0 0-.02.097c0 .033 0 .067.02.098.01.032.03.06.05.084a635 635 0 0 1 6.11 6.62c2.01 2.22 3.65 4.94 5.76 6.96 1.25 1.2 1.51 1.013.79-.56-1.1-2.393-1.28-4.717-.55-6.97a54 54 0 0 1 1.8-4.74c6.22-14.153 12.79-29.017 19.7-44.59.11-.26.07-.5-.14-.72a.8.8 0 0 0-.82-.21 6061 6061 0 0 0-41.58 13.35c-5.3 1.72-11.93 4.47-16.45-.33-.24-.247-.49-.257-.74-.03l-.2.19c-.14.127-.14.257-.01.39 4.39 4.6 8.53 9.41 12.41 14.43.23.293.49.313.76.06l.19-.17c.07-.062.1-.147.11-.238a.4.4 0 0 0-.09-.252c-4.44-5.07-4.23-9.34 2.64-11.53 4.33-1.373 8.6-2.737 12.82-4.09.08-.03.17-.033.25-.01.09.024.16.072.22.14zm-954.89 17.19c3.54 3.05 2.45 5.5-.34 8.4q-.42.43.03.85l.2.19a.28.28 0 0 0 .216.075.28.28 0 0 0 .204-.105l25.45-29.89a1.037 1.037 0 0 0-.1-1.45 145 145 0 0 1-8.18-7.95.78.78 0 0 0-.76-.19q-.62.17-.24.69c2.83 3.89 4.94 8.59 2.68 13.18q-.78 1.6-4.57 6.02a237 237 0 0 1-4.96 5.61q-2.73 2.97-5.7.47a3159 3159 0 0 1-31.76-27.05c-2.91-2.5-.88-5.73 1.28-8.04a.36.36 0 0 0 .092-.238.34.34 0 0 0-.092-.232l-.18-.19q-.42-.45-.8.04a209 209 0 0 1-12.5 14.69.49.49 0 0 0-.078.539.5.5 0 0 0 .118.151l.2.17q.12.1.24 0c2.5-1.96 4.46-5.59 8.23-2.41a5137 5137 0 0 1 31.32 26.67Zm-66.48 53.97q-7.2-4.54-14.41-9.09-3.87-2.44-1.6-6.48a71 71 0 0 1 4.24-6.66c2.21-3.04 6.34-5.04 9.89-3.3q1.13.55 1.45.6 3.45.5.42-1.33l-7.76-4.67a.73.73 0 0 0-1 .24l-18.13 28.77a.408.408 0 0 0 .29.62l.38.06q.069.01.12-.05c1.95-2.36 3.71-6.13 7.61-3.7a4579 4579 0 0 1 35.81 22.56c3.39 2.16 1.53 5.71-.23 8.17a.42.42 0 0 0-.052.409.44.44 0 0 0 .322.271l.32.06a.4.4 0 0 0 .223-.021.35.35 0 0 0 .167-.139l18.82-29.88c.18-.281.244-.621.181-.95a1.32 1.32 0 0 0-.521-.82l-9.02-6.58q-.32-.23-.59.06l-.24.25a.23.23 0 0 0 .01.33c4.32 4.3 6.82 9.31 3.23 15.24a126 126 0 0 1-4.55 7.01q-2.4 3.45-5.92 1.25a2043 2043 0 0 1-16.86-10.61.45.45 0 0 1-.21-.288.5.5 0 0 1-.005-.182.5.5 0 0 1 .065-.17 910 910 0 0 1 5.56-8.75q3.639-5.64 9.42-2.36a.41.41 0 0 0 .36.03.42.42 0 0 0 .25-.26l.11-.33a.26.26 0 0 0 .003-.178.28.28 0 0 0-.113-.142l-12.16-7.55q-.55-.34-.62.3l-.04.37q-.02.18.13.29 4.01 2.81 1.89 6.96-2.271 4.45-6.27 10.44-.39.57-.97.2Zm1097.22-16.42c4.85 6.38 2.54 12.67-2.59 17.58a.58.58 0 0 0-.18.369c-.01.142.03.285.11.401l.16.23a.28.28 0 0 0 .18.11c.03.005.07.004.1-.005a.3.3 0 0 0 .1-.045c2.43-1.74 4.89-3.48 7.37-5.22q1.245-.86.96-2.42c-.59-3.387-1.82-6.577-3.68-9.57-4.76-7.65-14.92-11.46-21.98-3.96-9.7 10.29 3.61 29.62-13.34 36.02-2.08.79-4.59.63-6.43-.65-10.07-6.99-6.54-17.18.56-24.44.09-.08.09-.167.01-.26l-.23-.25c-.25-.287-.52-.317-.83-.09l-9.41 7.23c-.14.11-.26.255-.33.421a.97.97 0 0 0-.09.529c.56 6.493 3.04 11.957 7.45 16.39 4.38 4.4 9.29 5.753 14.74 4.06 5.92-1.84 9.42-7.1 9.54-13.19.08-4.087.11-8.417.1-12.99-.01-2.687.47-5.08 1.46-7.18 2.75-5.89 11.51-9.3 16.25-3.07ZM760.22 735.34c-11.95-8.44-24.89-13.62-38.8-17.6-6.21-1.77-11.45-3.96-16.81-7.14a1.6 1.6 0 0 1-.78-1.58c.94-7.73.75-15.54-.61-23.3q-3.34-19.03-8.09-33.58c-6.82-20.85-21.5-36.23-40.02-47.47q-13.17-7.99-28.37-14.73-.88-.39-.72.55 2.21 13.64 5.38 26.18 10.49 41.48 40.45 71.02 10.74 10.58 20.32 19.25c5.83 5.28 13.24 10.09 20.99 12.47a406 406 0 0 0 7.42 2.2q1.05.3 0 .59-13.48 3.69-26.98 1.46-.56-.1-.67-.66c-1.13-6.25-7.34-10.32-12.96-12.64q-7.48-3.07-14.61-4.34c-4.36-.77-9.09-.77-13.6-.89q-5.4-.15-10.41.21-8.15.57-16.03.51-7.84-.06-16.68-2.03-7.63-1.71-15.1 1.46a272 272 0 0 0-12.25 5.54c-4.87 2.35-9.9 3.46-15.35 3.22q-1.14-.05-.22.63 5.84 4.33 11.57 8.5 15.39 11.22 31.42 18.07c8.88 3.79 18.79 6.35 28.34 6.9q7.05.4 13.64-.03c15.29-1.01 30.96-7.63 41.3-19.03a.94.94 0 0 1 .81-.32q8.7.68 15.78-.65 6.48-1.21 13.68-5.57.57-.35 1.21-.2 20.2 4.61 37.83 14.94c.439.256.808.621 1.07 1.06 14.84 24.79 31.21 46.35 50.07 71.1q.15.2.35.05l.21-.15q.2-.14.07-.34-29.59-44.4-45.63-70.68a1133 1133 0 0 1-14.12-23.79q-.77-1.34-.9-2.5-2.71-24.5 5.91-48.48.92-2.55 1.97-4.83.24-.53.58-.05c3.95 5.57 11.02 9.21 16.89 13 9.42 6.07 18.58 6.7 30.29 6.2q16.45-.7 33.86 1.25 1.6.18.47-.96-15.34-15.39-34.94-25.94c-11.42-6.15-23.42-8.54-36.27-4.85-2.17.62-4.07 1.57-5.97 2.73q-.94.57-.41-.39c4.72-8.63 10.83-16.67 16.76-24.76a.76.76 0 0 1 .78-.33q13.12 1.8 26.47-2.85c15.42-5.37 33.61-18.45 39.07-34.7q2.1-6.23 2.85-13.66 1.58-15.55.23-31.53-.05-.55-.53-.29a459 459 0 0 0-24.67 14.07q-9.78 6-18.79 14.23-11.24 10.27-17.31 24.1-5.52 12.61-10.68 24.68-1.54 3.59-1.51-.31.06-10.7-3.68-19.1c-4.16-9.35-11.88-17.98-16.51-27.77a.466.466 0 0 0-.669-.187.44.44 0 0 0-.161.197q-4.76 11.3-7.53 22.7c-2.81 11.56-3.34 22.92 3.75 33q5.16 7.36 10.13 14.23a1.38 1.38 0 0 1 .08 1.49q-7.83 13.78-11.56 30.21c-.77 3.4-1 7.07-1.42 10.63q-.53 4.56-.38 8 .16 3.74.23 7.6c.05 3.45.86 6.81 1.35 10.24q.08.54-.18.06-19.12-34.61-29.91-72.4-5.37-18.8-12.52-49.86c-.39-1.72-.26-3.47.16-5.17q4.98-19.87 16.65-37.68a.46.46 0 0 1 .513-.196.5.5 0 0 1 .177.086q13.5 10.45 31 13.31 6.59 1.07 14 1.23 12.5.26 25.61-.43a.421.421 0 0 0 .28-.71 1194 1194 0 0 0-18.18-18.06c-11.05-10.73-24.12-15.63-39.69-11.14q-.76.22-.24-.38a12.7 12.7 0 0 1 1.92-1.73q7.62-5.66 15.54-11.73c2.13-1.63 4.05-3.68 5.99-5.57q.43-.42.95-.11 13.53 8.26 28.95 11.26c7.18 1.4 14.89 1.3 21.86-.7 9.74-2.79 18.5-8.03 25.68-15.15q5.03-4.99 6.87-7.34 8.82-11.19 17.05-25.06.27-.46-.26-.51-34.99-3.08-68.35 2.63c-12.84 2.19-24.87 5.48-30.07 18.74a138 138 0 0 1-3.38 7.92 13.7 13.7 0 0 1-1.75 2.84q-.47.58-.25-.14c.23-.73.72-1.15.91-1.97q2.13-9.78-.42-18.5c-2.29-7.86-6.76-15.92-9.88-24.12q-1.63-4.27-3.28-8.7-.24-.65-.49-.01-6.76 17.8-12.65 37.53-3.1 10.39-2.39 19.37.63 7.93 6.36 14.66.39.46-.09.81a22.5 22.5 0 0 0-3.26 2.95q-21.24 23.41-26.81 53.86c-.1.51.06 1.03-.03 1.53q-.19 1.05-.42.01-6.15-26.76-3.77-51.05a411 411 0 0 1 3.96-29.24q4.67-27.25 10.26-53.01a451 451 0 0 1 4.45-18.67.773.773 0 0 1 .93-.56c5.31 1.3 10.35-.84 15.2-3.37q6.14-3.2 10.09-7.73 9.75-11.18 12.43-26.9 1.14-6.69 1.16-12.79c.02-6.02.18-11.81-.47-17.99a665 665 0 0 0-1.74-15.01q-.65-5.01-1.44-6.36-2.15-3.67-5.86-1.57c-9.05 5.12-18.14 10.67-26.31 17.31q-5.74 4.67-10.17 8.89-12.71 12.13-10.08 31.74 1.41 10.55 5.68 21.96 2.33 6.23 7.2 10.02.75.59.48 1.49a461 461 0 0 0-8.68 33.26q-.13.58-.69.35-3.12-1.3-4.99-3.66a53 53 0 0 0-5.84-6.27 1.1 1.1 0 0 1-.261-.38 1.05 1.05 0 0 1-.079-.45q.67-13.34-.15-23.09c-.75-8.77-5.85-14.79-11.98-20.63-5.03-4.8-8.07-10.88-11.45-16.82q-3.81-6.72-10.23-10.63-.59-.35-.36.29c2.99 8.23 6.45 17.83 6.19 25.95q-.2 6.63-.26 13.28c-.06 6.59 2.72 11.72 7.59 16.75 8.78 9.09 16.51 15.89 25.15 23.76q2.27 2.06 6.38 3.19.48.13.37.62-4.38 18.56-8.13 39.09c-3.34 18.28-5.02 36.96-2.95 54.71q1.42 12.14 5.02 26.63.01.06-.04.09-.11.06-.21.14l-.021.011h-.024l-.022-.011-.013-.02a30 30 0 0 0-2.29-4.63q-9.9-16.27-22.2-29.85-.4-.44.04-.84 1.87-1.65 3.63-3.25 7.16-6.5 8.05-15.88c.68-7.25-.2-13.92-1.24-21.2q-2.58-18.1-3.7-37.37-.12-1.96-.86-.15-11.09 27.18-18.15 53.15-1.28 4.7-1.44 11.01-.03.82-.61.24l-8.38-8.48q-.73-.73-.43-1.73a134.6 134.6 0 0 0 5.27-26.88c1.09-11.75-.41-22.67-6.72-33.08q-5.46-9-9.79-16.95c-2.14-3.91-3.83-8.25-5.59-12.43-2.47-5.87-4.56-12.27-6.97-18.42q-.67-1.71-1.09.08a569 569 0 0 0-5.72 27.97q-2.3 12.82-1.82 24.57.79 19.6 11.36 35.37 5.64 8.42 11.4 16.69a72 72 0 0 0 3 4q1.67 2.07 3.22 4.11.43.55-.27.49c-3.06-.29-6.51-.36-9.47.38q-11.39 2.85-23.88 4.79-15.35 2.37-28.6-1.51-1.77-.51-.54.86 5.63 6.28 11.37 11.43 5.03 4.5 11.28 7.5c12.74 6.11 28 4.1 41.78-.55q9.15-3.08 15.64-6.32.43-.22.78.11 10.72 10.09 18.91 20.12a369 369 0 0 1 13.04 16.91c1.26 1.73 2.45 3.72 3.04 5.76q10.52 36.54 13.69 46.64 8.46 26.9 13.9 41.25 5.71 15.08 16.56 37.36 2.61 5.36 10.86 19.51.37.63-.23.21Zm-462.17-69.08h74.25q.55 0 .76.51 4.7 11.48 9.69 23.75c2.03 4.98 4.05 10.94 4.08 16.24.06 7.95-12.68 8.38-18.01 8.25-1.52-.04-2.89.28-4.35.56a1.12 1.12 0 0 0-.8.58c-1.97 3.42-2.27 8.86 1.44 11.27q1.33.87 3.89.76c23.99-1.01 46.11-1.25 69.67.02q2.81.16 4.6-2.41c1.84-2.65 1.32-6.08.23-9.01a2.31 2.31 0 0 0-2.11-1.51c-7.7-.24-14.17-1.01-18.44-8.16-1.65-2.75-3.22-5.31-4.52-8.31a645 645 0 0 1-6.2-14.75q-24.69-60.85-47-115.96c-6-14.82-13.6-29.66-30.98-33.1q-12.24-2.43-25.27-1.77c-2.48.12-5.19 1.8-5.44 4.55-.24 2.82-.65 6.79 3.13 7.5q7.87 1.47 14.3 4.07c4.68 1.89 6.88 5.58 5.97 10.53q-.51 2.75-.89 3.66a55751 55751 0 0 1-56.31 133.18c-2.08 4.89-4.98 10.35-8.45 13.86-4.29 4.33-10.7 4.44-16.56 4.57q-3.55.08-4.36 3.44c-1.1 4.59.22 9.96 6.05 9.6q27.4-1.7 60.55-.05c7.18.36 7.73-6.13 5.83-11.24a1.55 1.55 0 0 0-.62-.78q-1.94-1.27-4.45-1.15-8.49.41-17.11-1.11c-5.22-.92-7.23-5.12-6.06-10.09 1.51-6.43 3.34-12.96 5.83-19.31a1576 1576 0 0 1 7.13-17.83q.15-.36.53-.36ZM91.64 637.77q26.28.02 53.99.01c3.51-.01 5.28-3.94 5.06-7.03-.2-2.81-1.87-6.29-5.04-6.29q-28.6.01-54.14.01-.51 0-.51-.5v-76.42q0-.51.51-.51 21.34-.17 38.95.09c16.48.24 23.81 6.35 27.77 21.88a175 175 0 0 1 3.25 15.81c.5 3.13 2.54 4.9 5.49 5.66q6.31 1.63 10.68-2.02 1.73-1.44 1.68-4.06-.42-20.91-.83-41.51a11.1 11.1 0 0 0-.69-3.64q-1.28-3.45-4.53-3.96-2.97-.47-6.86-.44-47.11.4-95.93.01-12.6-.1-31.25-.82c-6.13-.24-6.58 6.54-5.11 10.81q.72 2.07 3.1 2.1c10.3.11 21.19 1.38 22.62 14.14.42 3.75.89 7.51.88 11.31q-.01 57.21.01 115.39c0 4.31-.26 8.73-.89 13.04q-.75 5.09-2.64 7.72c-4.6 6.41-12.05 6.44-19.31 6.7q-3.85.13-4.29 4.01c-.37 3.31-.39 6.58 2.82 8.26q1.37.72 3.65.62 17.84-.79 31.33-.82 51.56-.11 104.25-.08 2.04 0 4.46-.52c2.89-.62 4.13-3.81 4.55-6.41q2.7-17 5.76-36.59c1.14-7.32-6.96-9.24-12.52-8.17-2.97.57-4.74 2.77-5.52 5.51a212 212 0 0 1-5.41 16.21c-2.88 7.61-6.63 13.55-14.95 16.01q-5.19 1.54-10.05 1.61-16.97.26-34.05.03-6.06-.08-11.27-3.64c-5.03-3.45-5.69-13.05-5.68-18.54q.04-27.23.02-54.32-.01-.65.64-.65Zm958.81-80.28c1.36 4.6 1.66 9.8 1.67 14.46q.27 72.02-.03 115.69c-.06 8.42-.41 17.47-1.06 27.15-1.43 21.55-6.51 44.59-27.56 55.38-2.31 1.187-4.68 2.413-7.1 3.68-.4.206-.72.55-.89.97-1.98 4.83.61 12.31 7.02 10.79 19.09-4.52 35.48-14.98 45.31-32.29 7.85-13.83 11.78-29.82 13.41-45.59.48-4.627.73-11.287.74-19.98.06-37.34.09-75.007.08-113q0-9.24 1.41-15.76c2.42-11.2 12.57-11.94 22.08-12.1 5.22-.08 4.69-7.61 2.89-10.64q-1.485-2.48-4.68-2.32-17.655.85-33.51.86c-1.68 0-3.35.35-5.06.17q-1.755-.19-3.6-.19c-10.22-.007-20.3-.273-30.25-.8-2.03-.11-4.24.26-5.43 2.15-1.75 2.8-1.84 5.82-.28 9.06.73 1.5 2.07 1.85 3.59 1.84 3.17-.007 6.4.223 9.7.69 3.26.46 5.61 1.9 8.03 4.13 1.71 1.587 2.89 3.47 3.52 5.65Zm219.23-11.25c6.31.013 12.8.023 19.48.03 8.91 0 17.9 2.78 22.47 10.82q2.595 4.57 3.84 9.22 2.235 8.28 3.81 18.38.615 3.94 4.74 5.54c3.81 1.48 7.31 1.363 10.52-.35 1.87-1 3.05-2.72 2.99-4.88q-.435-17.48-1.14-40.31-.135-4.59-.96-6.25c-1.11-2.287-3.19-3.43-6.22-3.43-53.68-.02-103.87-.017-150.56.01-4.92 0-7.44 2.46-7.55 7.38-.31 13.287-.62 27.157-.94 41.61-.15 6.9 6.67 8.14 12.15 6.58 3.12-.89 5.69-2.25 6.14-5.8.83-6.447 2.18-13.037 4.04-19.77 3.37-12.21 11.83-18.52 24.43-18.7q10.53-.14 21.21-.03c.39.007.58.2.58.58.07 50.06.06 98.147-.01 144.26-.01 4.633-.61 9.26-1.82 13.88-1.67 6.36-8.41 9.69-14.56 9.85-3.13.08-6.02.35-8.66.81-.29.053-.53.2-.71.44-.95 1.287-1.47 2.91-1.57 4.87q-.24 4.88 3.06 6.49c1.15.553 3.2.76 6.17.62q32.625-1.55 68.52.01c1.12.047 2.18-.027 3.19-.22 5.23-1 5.67-12.52-.65-12.73-5.2-.18-12.06-.06-16.28-3.68-2.91-2.5-4.65-5.41-5.2-8.73-.81-4.84-1.22-10.057-1.21-15.65.03-45.747.04-92.467.02-140.16 0-.46.23-.69.68-.69Zm-930.15 457.28c.9 8.87 5.04 20.93 14.89 23.48 11.38 2.94 19.64-4.04 22.83-14.46 3.65-11.9 3.64-29.93-5.01-40.26q-4.99-5.94-13.26-5.85c-18.09.19-20.78 23.94-19.45 37.09Zm234.51 23.15c5.78-1.92 9.96-7.9 11.75-13.55 3.253-10.27 3.36-20.677.32-31.21-1.89-6.52-6.68-13.53-13.7-14.97q-13.55-2.77-20.14 9.81c-5.88 11.21-5.79 29.36-.22 40.25 4.45 8.71 12.48 12.82 21.99 9.67Zm73.42-20.48c-5.36 6.47-11.083 13.37-17.17 20.68-.003.01-.005.01-.005.02-.001.01.001.01.004.02.003 0 .007.01.013.01.005.01.011.01.018.01q1.14.06 7.67.06c.173 0 .313-.07.42-.2a5298 5298 0 0 0 23.16-27.98q4.74-5.75 4.47-13.33c-.62-17.52-22.43-25.63-34.49-13.07q-5.62 5.85-5.6 14.12c.01 11.63 9.13 19.05 20.38 19.54.204.01.41-.02.6-.11l.24-.12c.7-.38.797-.26.29.35Zm127.25 14.64a.3.3 0 0 1-.125-.04.26.26 0 0 1-.083-.1.23.23 0 0 1-.013-.13q.014-.075.061-.12c7.013-6.87 13.92-13.77 20.72-20.68q5.56-5.65 5.4-14.01c-.21-10.99-9.38-19.42-20.26-19.38-11.26.04-20.15 8.93-20.03 20.39q0 .34.35.34l5.5.01q.27 0 .27-.27.07-8.16 7.04-12.32c6.85-4.09 16.17-1.17 19.35 6.18q3.73 8.63-3.34 15.78a9150 9150 0 0 1-29.75 29.94.34.34 0 0 0-.069.36c.025.05.066.11.119.14.053.04.116.06.18.06l40.97.01c.24 0 .36-.12.36-.37l-.03-5.41q0-.36-.37-.36zm68.86-17.04c.96 8.84 5.09 20.7 14.86 23.21 11.97 3.08 20.17-4.7 23.16-15.57 2.88-10.45 2.92-23.78-1.95-33.85-3.11-6.43-8.02-10.82-15.5-11.14-19.03-.83-22.07 23.58-20.57 37.35Zm96.57 17.04a.3.3 0 0 1-.175-.06.3.3 0 0 1-.116-.14.27.27 0 0 1-.021-.17.3.3 0 0 1 .082-.16q9.28-9.21 18.38-18.15c4.85-4.78 7.6-9.14 7.64-15.78.1-17.76-21.4-26.53-34.17-14.4q-6.37 6.05-6.1 14.84a.31.31 0 0 0 .31.3l5.5-.01q.3 0 .3-.3c-.12-6.58 4.68-12.83 11.39-13.93 13.54-2.21 21.69 13.49 11.82 23.44-10.36 10.44-20.337 20.48-29.93 30.11a.36.36 0 0 0-.088.17.34.34 0 0 0 .144.34.4.4 0 0 0 .184.05l40.96.01c.247 0 .37-.12.37-.37v-5.38c0-.1-.041-.2-.114-.28a.4.4 0 0 0-.276-.11zm105.09-5.77c0-.08.03-.16.09-.21.05-.06.13-.09.21-.09l6.92.01c.08 0 .16-.03.21-.09.06-.05.09-.13.09-.21v-5.69c0-.08-.03-.16-.09-.21a.27.27 0 0 0-.21-.09l-6.92.02c-.08 0-.16-.03-.21-.09a.27.27 0 0 1-.09-.21l-.1-40.63a.5.5 0 0 0-.02-.115.4.4 0 0 0-.07-.097.3.3 0 0 0-.1-.065.3.3 0 0 0-.11-.023l-8.15-.01c-.05 0-.1.011-.14.034a.4.4 0 0 0-.11.096l-31.03 46.91c-.03.05-.05.1-.05.15-.01.06.01.11.03.16.03.05.07.09.11.12.05.03.11.04.16.04l32.83-.01c.08 0 .16.03.21.09.06.05.09.13.09.21l.01 11.62c0 .08.03.16.09.21.05.06.13.09.21.09l5.83.01c.08 0 .16-.03.21-.09.06-.05.09-.13.09-.21zM444.85 973.7a.3.3 0 0 1 .247.138.3.3 0 0 1 .023.282l-23.14 52.42q-.03.075-.024.15c.004.05.021.09.049.14.028.04.066.07.111.1a.4.4 0 0 0 .144.03l6.16.04a.31.31 0 0 0 .28-.18l26.01-58.88a.3.3 0 0 0-.023-.282.3.3 0 0 0-.247-.138l-36.77-.01a.3.3 0 0 0-.3.3l.02 5.6a.3.3 0 0 0 .3.3zm-183.35 31.62c0-.09-.037-.18-.102-.25a.38.38 0 0 0-.248-.1H84.91a.37.37 0 0 0-.247.1.37.37 0 0 0-.103.25v4.3c0 .09.037.18.103.25.065.06.154.1.247.1h176.24c.093 0 .182-.04.248-.1a.37.37 0 0 0 .102-.25zm1045.76.15a.47.47 0 0 0-.15-.35.47.47 0 0 0-.35-.15h-176.14a.47.47 0 0 0-.35.15.47.47 0 0 0-.15.35v4c0 .13.05.26.15.35.09.1.22.15.35.15h176.14c.13 0 .26-.05.35-.15.1-.09.15-.22.15-.35zm-801.56 17.44c0-1.32-.525-2.59-1.459-3.52a4.96 4.96 0 0 0-3.521-1.46c-1.321 0-2.587.52-3.521 1.46a4.97 4.97 0 0 0-1.459 3.52c0 1.32.525 2.59 1.459 3.52.934.94 2.2 1.46 3.521 1.46s2.587-.52 3.521-1.46a4.97 4.97 0 0 0 1.459-3.52Zm210.49 0c0-.65-.129-1.3-.378-1.9-.25-.6-.616-1.15-1.078-1.61a4.8 4.8 0 0 0-1.612-1.08 5 5 0 0 0-1.902-.38 4.94 4.94 0 0 0-3.514 1.46 4.95 4.95 0 0 0-1.078 5.41c.25.6.616 1.15 1.078 1.61.461.47 1.009.83 1.612 1.08s1.249.38 1.902.38 1.299-.13 1.902-.38a4.8 4.8 0 0 0 1.612-1.08c.462-.46.828-1.01 1.078-1.61.249-.6.378-1.25.378-1.9Z" stroke="#000"/><path d="M568.3 49.32c4.12-4.24 8.08-10.1 6.26-16.13q-1.98-6.57-8.79-5.24-2.9.56-4.06 2.97c-2.71 5.62 2.14 13.92 6.03 18.38a.37.37 0 0 0 .276.133.38.38 0 0 0 .284-.113Zm6.3 28.85q8.26-.32 13.1-7.37a.41.41 0 0 0-.019-.481.4.4 0 0 0-.131-.109q-12.2-6.16-21.7-14.94-.53-.5-1.01.05c-4.88 5.63-6.19 13.05-.75 18.86q3.97 4.24 10.51 3.99Zm225.86-36.42c-3.77 11.1-2.89 25.34 6.54 33.25q5.78 4.85 13.96 4.68c8.31-.17 14.75-5.68 17.81-13.2 5.93-14.58 2.74-31.76-13.37-37.12-11.28-3.76-21.15 1.23-24.94 12.39Zm-393.27 70.54a.34.34 0 0 0 .047.157.325.325 0 0 0 .433.123l15.62-8.02a.33.33 0 0 0 .154-.43.33.33 0 0 0-.104-.13l-16.82-13.53a.33.33 0 0 0-.54.28zm601.56 13.32a.3.3 0 0 0-.09.114.4.4 0 0 0-.03.144c0 .05.02.098.04.14.03.042.07.077.11.102l15.18 9.08q.06.043.15.046.075.004.15-.031a.35.35 0 0 0 .11-.101.25.25 0 0 0 .05-.144l2.08-21.81a.25.25 0 0 0-.03-.169.33.33 0 0 0-.12-.124.31.31 0 0 0-.33.023zm157.34 127.6c-.05.019-.1.05-.14.092a.3.3 0 0 0-.08.148.3.3 0 0 0-.01.169c.02.056.04.108.08.151l11.65 13.13c.04.043.09.077.14.096.06.02.12.025.17.016a.3.3 0 0 0 .16-.067.3.3 0 0 0 .11-.135l8.83-19.58a.33.33 0 0 0-.06-.375.33.33 0 0 0-.16-.106.35.35 0 0 0-.2.001zM730.84 393.38q.14.05.11.2l-8.57 33.17q-.21.81.61.63a.8.8 0 0 1 .65.15c2.26 1.69 8.82-.34 11.27-1.47 10.77-4.97 16.18-13.67 19.01-25.12 2.47-9.98 3.7-19.9 4.61-30.17q1.41-15.8-1.09-29.23a8.4 8.4 0 0 0-1.06-2.78 1.92 1.92 0 0 0-1.203-.88 1.96 1.96 0 0 0-1.477.24q-10.66 6.65-21.22 15.85a496 496 0 0 0-10.12 9.06c-5.39 4.96-9.65 10.95-11.04 18.2-2.04 10.66.41 21.62 2.55 32.09q1.3 6.36 4.95 11.63.7 1.01 1.07-.17a676 676 0 0 1 10.62-31.44q.03-.05.08-.04zm-36.8 32.65c-.76-4.16-3.42-8.27-6.33-11.21q-6.7-6.75-10.87-16.39c-1.97-4.53-4.51-10.11-8.1-13.56q-.67-.63-.33.22c2.72 6.8 5.86 13.35 6.29 20.67.48 7.95-.82 17.69 4.42 24.03q6.25 7.57 14.55 15.83a23 23 0 0 1 3.4 4.29q.36.58.41-.1c.2-2.59-.82-4.88-1.09-7.42a216 216 0 0 0-2.35-16.36Zm-63.37.63q-3.74 15.35-4.33 29.64c-.62 14.89 2.01 31.16 10.28 43.44a521 521 0 0 0 11.28 16.06q.42.58.5-.14.86-8.26.43-14.82c-.54-8.32-4.08-15.86-8.12-23.56q-6.04-11.53-7.88-25.01-1.49-10.84.04-25.34a1.74 1.74 0 0 0-.12-.86c-.36-.93-.26-2.13-1.03-2.85q-.42-.38-.48.19a24.5 24.5 0 0 1-.57 3.25Z" stroke="#000"/><path d="M637.66 440.66a70 70 0 0 0-2.04-5.78q-.25-.63-.16.04 2.1 14.1 4.16 27.06 1.29 8.12 3.68 15.33c1.86 5.64 5.06 10.9 7.69 16.37 3.93 8.19 2.25 15.54-.07 24.02a3.96 3.96 0 0 0 .73 3.52l2.07 2.57q1.16 1.44 1.46-.38 1.84-11.32 2.48-24.01c.45-8.78-.28-19.42-4.16-26.69-3.88-7.28-8.59-14.28-12.07-22.03a87 87 0 0 1-3.77-10.02Zm108.31 44.09c1.35 3.44.97 6.54.22 10.01-.6 2.79.99 5.59 2.14 8.05q2.46 5.31.53 10.67-.25.71.35.25c1.19-.91 2.29-1.87 3.5-2.77 6.43-4.75 4.76-19.65 3.24-26.45-2.05-9.14-4.69-18.9-8.49-27.63q-.5-1.15-.76.07c-2.64 12.46-5.6 24.84-9.23 36.81-2.82 9.29-3.53 18.59 1.07 27.25q.33.63.89.19l6.03-4.78q.48-.38.4-.99c-.67-5.07-1.95-9.86-1.47-14.98.53-5.73-4.46-10.79.86-15.86q.48-.46.72.16Zm75.64 6.63q3.24-.54.62 1.42c-5.31 3.98-11.83 5.34-18.52 4.99-6.88-.37-14.11 2.16-21.04 4.09-6.45 1.79-12.87 3.69-19.07 6.27q-.82.34.01.66a435 435 0 0 0 11.86 4.38 82.4 82.4 0 0 0 20.45 4.39c28.83 2.45 49.54-22.45 64.2-43.98q.33-.48-.25-.53-21.87-1.82-39.67.42-16.79 2.11-32.52 6.53c-4.99 1.41-12.1 4.13-15.03 8.69q-3.66 5.69-6.46 14.7-.22.71.32.2c3.81-3.51 8.45-5.03 13.49-6.12 5.43-1.16 11.39-.88 16.85-1.15 3.33-.16 6.56-1.1 9.77-2.04a64 64 0 0 1 7.36-1.65q3.76-.63 7.63-1.27Zm-136.57-3.03q-.22-1.59-.39-3.15-.02-.17-.19-.15h-.01q-.19.02-.18.21a73.6 73.6 0 0 1-2.11 24.24q-1.23 4.82-2.04 9.5c-.52 3.02-.37 6.11-.3 9.17.15 5.96-2.33 11.13-6.4 15.5q-.23.25 0 .49l3.89 4.18q.28.3.53-.03 3.44-4.54 4.35-5.85c3.25-4.69 4.45-10.37 4.34-16.26q-.17-8.44.1-15.82a93 93 0 0 0-.07-7.55 113 113 0 0 0-.65-7.81q-.35-3.01-.87-6.67Z" stroke="#000"/><path d="M678.43 502.56c-2.79 9.41-6.63 18.22-9.79 27.45q-1.09 3.16-1.39 7.06a1.66 1.66 0 0 0 .46 1.29l3.52 3.63a.56.56 0 0 0 .519.151.53.53 0 0 0 .391-.361 575 575 0 0 0 5.6-18.52q.21-.74.31-1.55.27-2.17.28-1.59.003.002.006-.007l.006-.028.005-.041.003-.044.24-17.42a.1.1 0 0 0-.002-.031.1.1 0 0 0-.014-.028.08.08 0 0 0-.054-.031.08.08 0 0 0-.059.016.1.1 0 0 0-.031.054Zm90.33 46.2c-4.49-.07-8.36-1.27-12.15-3.62q-3.77-2.34-8.25-2.61a61.6 61.6 0 0 1-17.73-3.76 1.43 1.43 0 0 0-.916-.026 1.4 1.4 0 0 0-.734.536l-1.65 2.39q-.58.85.31 1.36 6.8 3.89 13.65 6.13a265 265 0 0 0 24.13 6.63q12.34 2.78 24.81.85.61-.09.17-.52a20 20 0 0 0-2.58-2.14 45 45 0 0 1-5.73-4.77c-2.63-2.58-5.48-4.72-8.44-7.21q-3.13-2.63-6.99-5.1c-8.99-5.77-20.09-7.51-30.18-4.93q-2.2.57-3.34 2.69-.34.62.37.66c6.15.27 11.54 2.86 17.02 5.41q3.07 1.43 6.95 1.76c2.95.25 6.86 1.5 9.49 3.43q1.03.76 2.18 1.41 2.64 1.49-.39 1.43Zm-99.69-2.42q.26-.07.05-.25-6.06-5.17-11.82-10.69c-3.03-2.92-8.33-1.8-12.01-.91a92 92 0 0 0-6.59 1.85q-10.47 3.34-20.72 3.25-11.15-.1-22.74-2.2-.98-.18-.2.44 4.56 3.62 9.78 7.27 6.08 4.25 10.56 5.69 7.3 2.36 14.26 2.16c5.05-.15 10.15-.42 15.11-1.25q12.77-2.13 24.32-5.36Zm125.53 47.77c-3.93 9.53-7.52 19.61-12.26 28.87a.49.49 0 0 0 .014.486.5.5 0 0 0 .426.234c19.67-.13 37.56-9.06 51.25-22.73q8.22-8.21 11.21-18.68 4.92-17.25 4.17-37.7-.02-.51-.48-.28-12.24 6.34-22.37 13.3-9.73 6.7-18.28 15.58-8.85 9.21-13.68 20.92Zm-32.43 42.17c.63 1.29 1 2.64 1.47 3.96q.3.82.78.09 4.2-6.43 9.31-13.42 1.46-2 1.27-4.11c-1.55-16.74-8.88-32.69-17.44-46.99a.25.25 0 0 0-.241-.113.23.23 0 0 0-.122.057.22.22 0 0 0-.067.116q-3.06 12.04-4.41 23.84-.74 6.42-.42 12.27c.46 8.59 6.05 16.48 9.87 24.3Zm-132.1-40.1a.25.25 0 0 1 .184-.118.2.2 0 0 1 .108.015.2.2 0 0 1 .088.063c2.32 2.59 4.36 5.33 6.73 7.81 6.52 6.85 13.5 13.26 19.65 20.75 5.21 6.36 10.6 12.56 15.11 19.18q6.81 10.03 14 22.15 5.82 9.81 8.67 17.34 4.24 11.21 6.55 23.89.23 1.24 1.33 1.59.53.17.55-.38.25-11.03-3.16-24.96-4.2-17.16-8.38-29.32c-7.35-21.39-22.16-37.49-41.25-49.91q-10.33-6.72-21.99-12.04a.13.13 0 0 0-.064-.011.1.1 0 0 0-.061.024.12.12 0 0 0-.045.117q5.72 33.71 23.46 62.41c6.4 10.38 14.24 19.51 22.85 28.3q12.62 12.88 24.91 23.54.84.73.46-.31c-1.57-4.27-3.81-8.08-5.53-12.39q-4.23-10.63-9.06-23.41-5.23-13.84-16.6-25.66-17.35-18.05-30.59-34.78-5.08-6.41-7.97-13.12a.81.81 0 0 1 .05-.77Zm133.5 60.38q-1.63-.24-.07-.78 11.3-3.87 22.26-.58c6.99 2.1 15 7.69 22.53 9.81 3.98 1.12 8.3 1.61 12.08 3.38q1.63.77 3.6 1.41 2.78.91 5.51 3.23.07.06.13-.01l.17-.2q.16-.18-.01-.35-.9-.86-1.89-1.58-11.73-8.44-24.95-15.15-9.82-4.98-19.88-6.93-8.68-1.68-16.19 1.1-3.12 1.15-4.88 5.49a2.36 2.36 0 0 0-.18 1.09q.04.54-.28.99a.81.81 0 0 0 .07 1.02q1.94 2.07 4.2 3.33c4.73 2.63 9.72 4.38 14.5 6.78q9.73 4.9 21.21 6.18a235 235 0 0 0 31 1.39q.38-.01 1.74-.35.27-.07.21-.34l-.06-.27a.56.56 0 0 0-.215-.34.54.54 0 0 0-.385-.1q-4.12.45-8.28-.52a57 57 0 0 1-14.5-5.51c-2.87-1.56-5.81-3.19-8-3.77q-8.42-2.21-17.3-4.53c-7.3-1.91-14.66-2.76-22.14-3.89Zm-162.67 62.5q-4.74-.82.05-1.23 16.25-1.37 33.47-.61 11.79.52 23.19-.54c3.73-.35 8.2-.22 11.64.91q8.76 2.89 19 5.28a.89.89 0 0 0 .845-.258.88.88 0 0 0 .195-.862c-1.06-3.35-5.47-7.15-8.14-8.79-7.89-4.83-15.68-6.85-25.25-6.96q-8.29-.1-14.52.96-8.73 1.48-16.18 2.17-7.87.73-17.05-1.1c-12.59-2.51-23.76 7.11-36.18 8.06q-1.05.08-.24.75 19.88 16.41 44.11 23.19c9.63 2.69 19.31 4.05 28.71 3.55q24.47-1.31 42.23-15.11.68-.53-.16-.74a104.4 104.4 0 0 1-18.41-6.58c-2.1-.98-4.84-1.72-7.17-1.97q-8.99-.98-19.35.52-20.29 2.94-40.79-.64Zm-297.22-66.48a.468.468 0 0 0 .43.65l62.57-.02a.46.46 0 0 0 .389-.204.47.47 0 0 0 .051-.436l-30.5-77.68a.47.47 0 0 0-.88-.01zM366 975.8c-5.1-4.99-12.69-3.26-16.24 2.67-4.95 8.26-5.29 19.58-3.39 28.78 1.19 5.75 4.14 12.48 10.39 13.99 7.82 1.89 12.44-5.36 14.26-11.66 2.6-8.99 2.353-18.01-.74-27.05q-1.3-3.83-4.28-6.73Zm213.11 35.66q5.09-14.31-.28-29.44c-2.35-6.61-8.64-11.39-15.82-7.93-3.3 1.59-5.37 5.3-6.51 8.57q-4.94 14.21-.05 29.03c2.28 6.93 8.4 12.22 15.83 8.73 3.26-1.53 5.65-5.63 6.83-8.96Zm80.56-25.34c0-3.644-1.448-7.139-4.024-9.716a13.744 13.744 0 0 0-19.432 0 13.744 13.744 0 0 0 0 19.432 13.74 13.74 0 0 0 23.456-9.716Zm210.35-10.31c-5.12-5.01-12.72-3.27-16.28 2.69-4.7 7.85-5.18 18.35-3.66 27.31q1.08 6.3 4.21 10.89c4.21 6.15 12.51 6.58 17.07.4 1.633-2.22 2.843-4.69 3.63-7.42q3.92-13.56-.67-27.07-1.32-3.88-4.3-6.8Zm146.27 32.16c-.03.05-.05.11-.06.17 0 .06.01.12.04.18.03.05.07.1.13.13.05.03.11.05.17.05l21.86-.01c.09 0 .18-.04.24-.1s.1-.15.1-.24l.05-33.15a.3.3 0 0 0-.07-.206.33.33 0 0 0-.18-.123.32.32 0 0 0-.21.01.35.35 0 0 0-.17.139z" stroke="#000"/><path d="M740.42 17.73c-3.63-.58-6 1.02-6.18 4.5q-1.29 24.46-2.61 48.8c-.39 7.34-3.1 15.62-11.15 17.55-3.22.77-13.31 1.06-10.46-5.04q.23-.49.73-.68c3.78-1.45 4.77 1.76 6.67 3.92.201.234.475.395.78.46 6.53 1.45 7.4-9.03 7.64-13.6q1.27-24.27 2.73-52.01c.25-4.77-4.42-4.88-7.85-5.07a.25.25 0 0 1-.185-.09.27.27 0 0 1-.065-.2l.01-.26a.44.44 0 0 1 .305-.398.5.5 0 0 1 .175-.022l19.6 1.07a.4.4 0 0 1 .271.13.4.4 0 0 1 .074.131q.023.073.015.15l-.04.3a.4.4 0 0 1-.152.279.4.4 0 0 1-.308.08M590.36 65.15q1.56-6.22.38-11.81-1.12-5.23-6.65-4.14a.26.26 0 0 1-.148-.016.25.25 0 0 1-.112-.094l-.16-.22a.5.5 0 0 1-.057-.474.5.5 0 0 1 .367-.306l16.98-3.34a.38.38 0 0 1 .324.081.4.4 0 0 1 .146.309v.35a.45.45 0 0 1-.39.43c-4.64.53-5.72 2.4-6.26 7.02a64.6 64.6 0 0 1-2.89 12.99q-.16.49.3.72 9.25 4.53 18.32 5.48c.09.008.176.045.246.106.07.06.12.142.144.234q.11.42-.34.71a.8.8 0 0 1-.27.11q-3.26.56-6.65 1.29c-4.91 1.06-9.66-.97-13.76-3.2q-.43-.23-.78.11c-1.09 1.07-1.88 2.51-2.98 3.51q-7.88 7.13-18.3 6.62c-9.56-.48-15.1-10.08-10.55-18.5q2.56-4.74 6.6-8.83a.8.8 0 0 0 0-1.12q-3.45-3.52-5.46-7.77c-4.55-9.61 1.01-18.92 11.36-20.1 7.82-.88 11.9 5.9 9.26 12.75-1.81 4.72-6.02 8.88-9.65 12.23a.54.54 0 0 0-.172.388.55.55 0 0 0 .162.392q8.54 8.53 20.35 14.39.5.25.64-.3M568.3 49.32c4.12-4.24 8.08-10.1 6.26-16.13q-1.98-6.57-8.79-5.24-2.9.56-4.06 2.97c-2.71 5.62 2.14 13.92 6.03 18.38a.37.37 0 0 0 .276.133.38.38 0 0 0 .284-.113m6.3 28.85q8.26-.32 13.1-7.37a.41.41 0 0 0-.019-.481.4.4 0 0 0-.131-.109q-12.2-6.16-21.7-14.94-.53-.5-1.01.05c-4.88 5.63-6.19 13.05-.75 18.86q3.97 4.24 10.51 3.99m258.7-48.75q6.33 2.66 10.8 9.49c5.89 8.99 5.42 21.55-.79 30.19-14.16 19.69-48.76 14.93-51.66-11.38-1.62-14.75 6.73-27.27 21.6-30.26q10.4-2.08 20.05 1.96m-32.84 12.33c-3.77 11.1-2.89 25.34 6.54 33.25q5.78 4.85 13.96 4.68c8.31-.17 14.75-5.68 17.81-13.2 5.93-14.58 2.74-31.76-13.37-37.12-11.28-3.76-21.15 1.23-24.94 12.39m112.96 17.72a3241 3241 0 0 0-13.36 34.54c-1.45 3.8-1.42 7.45 2.89 9.24q.49.21.32.72l-.1.29a.26.26 0 0 1-.232.176.2.2 0 0 1-.098-.016l-13.61-5.27q-.43-.17-.39-.62l.02-.27a.28.28 0 0 1 .133-.222.29.29 0 0 1 .257-.028c5.17 1.89 7.47-1.26 9.09-5.43q7.02-17.99 14.03-36.13.2-.49-.03-.97-1.45-3.01-4.82-4.92-.19-.11-.09-.31l.13-.26a.52.52 0 0 1 .66-.24l9.82 3.83a1.1 1.1 0 0 1 .65.69l17.08 52.96q.3.92.65.02 6.42-16.31 12.81-33.2 2.25-5.93-3.28-8.54-.49-.24-.14-.65l.24-.28q.07-.09.18-.05l13.85 5.36q.33.13.18.45l-.13.3a.45.45 0 0 1-.59.24c-4.32-1.79-7.22 1.1-8.72 4.96a13642 13642 0 0 0-16.12 41.56.7.7 0 0 1-.305.355.7.7 0 0 1-.465.085q-.46-.07-.61-.53a82346 82346 0 0 0-19.19-57.82q-.33-.98-.71-.02m-506.08 55.68q.43 6.83.77 13.61c.35 6.92 5 7.85 10.44 4.98q.33-.17.5.15l.16.27q.28.51-.26.73-8.47 3.4-16.86 8.25a.55.55 0 0 1-.409.06.54.54 0 0 1-.331-.24l-.16-.25q-.14-.21.08-.33 4.36-2.35 4.65-6.78.33-5.01-.04-11.07a4322 4322 0 0 1-2.37-41.9.65.65 0 0 1 .067-.308.6.6 0 0 1 .203-.232q.5-.35.96.02a5574 5574 0 0 0 38.94 30.77c3.14 2.46 6.53 4.88 10.83 3.21q.27-.1.33.18l.08.33q.13.59-.43.81a120 120 0 0 0-16.11 7.88q-.46.27-.74-.18l-.14-.22q-.11-.18.06-.29l3.62-2.44a1.95 1.95 0 0 0 .63-2.53q-.79-1.47-2.2-2.61-7.13-5.7-13.78-11.02-.42-.34-.91-.1l-17.1 8.42q-.52.25-.48.83m-.15-2.86a.33.33 0 0 0 .163.271.33.33 0 0 0 .317.009l15.62-8.02a.33.33 0 0 0 .05-.56l-16.82-13.53a.33.33 0 0 0-.54.28zm599.13 15.12q-5.01 3.7-10.81 7.93c-6.04 4.41-3.84 8.13 1.43 11.7a.45.45 0 0 1 .194.34.43.43 0 0 1-.154.36l-.27.22q-.17.15-.36.02a141 141 0 0 0-16.46-9.8.444.444 0 0 1-.226-.509.4.4 0 0 1 .096-.171l.26-.29q.15-.16.34-.05c3.8 2.19 7.5 1.01 11.04-1.52 11.96-8.567 25.26-18.26 39.91-29.08.49-.367.9-.32 1.22.14.09.129.13.282.12.43-1.43 15.3-2.98 31.78-4.64 49.44-.38 4.01-.39 8.17 3.18 10.87.07.053.1.123.08.21l-.06.28a.56.56 0 0 1-.35.417.56.56 0 0 1-.28.035.6.6 0 0 1-.26-.102 126 126 0 0 0-15.75-9.48.34.34 0 0 1-.13-.111.4.4 0 0 1-.06-.159.41.41 0 0 1 .11-.32l.25-.24a.45.45 0 0 1 .28-.132c.1-.011.21.015.3.072 2.35 1.45 6.23 3.38 6.83-1.28q1.185-9.3 1.92-19.02a.44.44 0 0 0-.05-.251.45.45 0 0 0-.18-.189l-16.46-9.81c-.36-.22-.71-.203-1.06.05m2.43-1.8a.3.3 0 0 0-.09.114.4.4 0 0 0-.03.144c0 .05.02.098.04.14.03.042.07.077.11.102l15.18 9.08q.06.043.15.046c.05.003.1-.008.14-.031a.3.3 0 0 0 .17-.245l2.08-21.81a.33.33 0 0 0-.03-.169.33.33 0 0 0-.12-.124.3.3 0 0 0-.17-.038.3.3 0 0 0-.16.061zm-684.44 5.7c-4.83 1.37-9.7 5.64-8.03 11.06q2.8 9.07 12.54 8.83 6.36-.16 12.85-.43 11.69-.49 15.18 9.09 2.82 7.74-3.44 14.7-5.72 6.37-14.89 8.08-1.62.3-2.53-.78-3.46-4.1-7.39-8.73a.424.424 0 0 1-.001-.534.4.4 0 0 1 .151-.116l.29-.14q.2-.09.36.04 5.24 4.45 9.77 5.51 9.88 2.33 14.65-6.45 2.09-3.85-.48-7.87-4.6-7.21-12.72-7.02-6.11.15-12.16.42-10.17.47-14.28-7.63c-2.64-5.18-.77-11.19 3.12-15.22q5.05-5.23 13.03-6.87a1.49 1.49 0 0 1 1.47.53l5.81 7.32q.33.42-.07.77l-.25.21q-.09.08-.18 0c-3.25-3.02-8.27-6.04-12.8-4.77m798.65 43.55c-2.18-1.52-4.04-.96-5.64.96-8.43 10.053-17 20.243-25.73 30.57-3.88 4.6-1.15 6.71 2.39 9.71.04.039.08.088.11.142a.5.5 0 0 1 0 .346.6.6 0 0 1-.11.142l-.24.21a.24.24 0 0 1-.16.065.23.23 0 0 1-.16-.055l-16.75-14.08c-.27-.227-.26-.44.04-.64l.25-.17c.05-.032.1-.048.16-.046.05.001.11.021.15.056 2.79 2.34 6.13 5.29 9.4 1.39q13.74-16.37 25.92-30.84c1.23-1.46 2.63-3.67 1.05-5.37-6.83-7.35-12.39-9.51-20.51-2.46a.57.57 0 0 1-.39.135.55.55 0 0 1-.37-.165l-.19-.19q-.135-.14 0-.28l10.65-10.79c.23-.227.44-.217.65.03q.195.22.12.51c-.13.52-.11 1.063.04 1.572.16.509.45.964.84 1.318q12.6 11.23 26.82 22.66c1.42 1.133 2.84 2.067 4.25 2.8.69.35 1.23.12 1.92.02 1.13-.153 1.3.187.53 1.02l-9.9 10.68a.52.52 0 0 1-.33.154.5.5 0 0 1-.35-.114l-.22-.18c-.11-.093-.13-.197-.04-.31 2.98-3.98 5.73-8.73 1.98-13.27q-2.355-2.87-6.18-5.53m-861.03 4.53c-2.39 2-4.9 4.99-2.34 7.86q13.28 14.91 28.59 31.59c2.67 2.9 5.45.47 7.96-1.75a.3.3 0 0 1 .089-.051.26.26 0 0 1 .281.081l.2.24q.25.3-.04.57l-14.6 13.24a.44.44 0 0 1-.58.01l-.22-.19a.3.3 0 0 1-.077-.352.3.3 0 0 1 .077-.098q2.28-1.91 3.56-4.29c.162-.304.211-.658.14-1q-.35-1.77-1.62-3.18a8581 8581 0 0 0-27.86-30.75c-2.93-3.22-5.95-.79-8.29 1.39a.33.33 0 0 1-.204.084.34.34 0 0 1-.216-.064l-.21-.17q-.54-.4-.02-.82a196 196 0 0 0 14.5-13.07.51.51 0 0 1 .652-.064q.1.069.158.174l.14.25q.11.21-.07.36m914.97 89.64-12.79-14.86a.44.44 0 0 0-.22-.14.4.4 0 0 0-.25.01c-4.22 1.353-8.49 2.717-12.82 4.09-6.87 2.19-7.08 6.46-2.64 11.53.06.07.09.161.09.252a.36.36 0 0 1-.11.238l-.19.17c-.27.253-.53.233-.76-.06-3.88-5.02-8.02-9.83-12.41-14.43-.13-.133-.13-.263.01-.39l.2-.19c.25-.227.5-.217.74.03 4.52 4.8 11.15 2.05 16.45.33q21.855-7.1 41.58-13.35a.8.8 0 0 1 .82.21c.21.22.25.46.14.72-6.91 15.573-13.48 30.437-19.7 44.59a54 54 0 0 0-1.8 4.74c-.73 2.253-.55 4.577.55 6.97.72 1.573.46 1.76-.79.56-2.11-2.02-3.75-4.74-5.76-6.96-2-2.2-4.04-4.407-6.11-6.62a.3.3 0 0 1-.05-.084c-.02-.031-.02-.065-.02-.098a.3.3 0 0 1 .02-.097 1 1 0 0 1 .06-.081l.21-.19c.29-.26.55-.243.8.05.99 1.173 2.1 2.127 3.35 2.86a1.85 1.85 0 0 0 2.33-.39q1.515-1.77 2.58-4.23c2.17-5.06 4.36-9.953 6.56-14.68.09-.18.06-.347-.07-.5m-10.81-15.82c-.05.019-.1.05-.14.092a.3.3 0 0 0-.08.148.3.3 0 0 0-.01.169c.02.056.04.108.08.151l11.65 13.13c.04.043.09.077.14.096.06.02.12.025.17.016a.3.3 0 0 0 .16-.067.3.3 0 0 0 .11-.135l8.83-19.58a.33.33 0 0 0-.06-.375.33.33 0 0 0-.16-.106.35.35 0 0 0-.2.001zm-944.42 41.41c2.79-2.9 3.88-5.35.34-8.4a5137 5137 0 0 0-31.32-26.67c-3.77-3.18-5.73.45-8.23 2.41q-.12.1-.24 0l-.2-.17a.48.48 0 0 1-.167-.337.5.5 0 0 1 .127-.353 209 209 0 0 0 12.5-14.69q.38-.49.8-.04l.18.19a.34.34 0 0 1 .092.232.36.36 0 0 1-.092.238c-2.16 2.31-4.19 5.54-1.28 8.04a3159 3159 0 0 0 31.76 27.05q2.97 2.5 5.7-.47a237 237 0 0 0 4.96-5.61q3.79-4.42 4.57-6.02c2.26-4.59.15-9.29-2.68-13.18q-.38-.52.24-.69a.78.78 0 0 1 .76.19q4.01 4.21 8.18 7.95a1.037 1.037 0 0 1 .1 1.45l-25.45 29.89a.293.293 0 0 1-.42.03l-.2-.19q-.45-.42-.03-.85m-65.17 45.37q3.999-5.99 6.27-10.44 2.12-4.15-1.89-6.96a.3.3 0 0 1-.13-.29l.04-.37q.07-.64.62-.3l12.16 7.55a.28.28 0 0 1 .113.142.26.26 0 0 1-.003.178l-.11.33a.43.43 0 0 1-.25.26.43.43 0 0 1-.36-.03q-5.781-3.28-9.42 2.36a910 910 0 0 0-5.56 8.75.45.45 0 0 0-.06.351.46.46 0 0 0 .21.289q8.3 5.28 16.86 10.61 3.52 2.2 5.92-1.25 2.34-3.35 4.55-7.01c3.59-5.93 1.09-10.94-3.23-15.24a.23.23 0 0 1-.06-.253.2.2 0 0 1 .05-.077l.24-.25q.27-.29.59-.06l9.02 6.58c.272.198.458.491.521.82s-.001.669-.181.95l-18.82 29.88a.35.35 0 0 1-.167.139.4.4 0 0 1-.223.021l-.32-.06a.44.44 0 0 1-.349-.483.4.4 0 0 1 .079-.197c1.76-2.46 3.62-6.01.23-8.17a4579 4579 0 0 0-35.81-22.56c-3.9-2.43-5.66 1.34-7.61 3.7q-.051.06-.12.05l-.38-.06a.407.407 0 0 1-.29-.62l18.13-28.77a.73.73 0 0 1 1-.24l7.76 4.67q3.03 1.83-.42 1.33-.32-.05-1.45-.6c-3.55-1.74-7.68.26-9.89 3.3a71 71 0 0 0-4.24 6.66q-2.27 4.04 1.6 6.48 7.21 4.55 14.41 9.09.58.37.97-.2m1093.66 1.36c5.13-4.91 7.44-11.2 2.59-17.58-4.74-6.23-13.5-2.82-16.25 3.07-.99 2.1-1.47 4.493-1.46 7.18.01 4.573-.02 8.903-.1 12.99-.12 6.09-3.62 11.35-9.54 13.19-5.45 1.693-10.36.34-14.74-4.06-4.41-4.433-6.89-9.897-7.45-16.39a.97.97 0 0 1 .09-.529c.07-.166.19-.311.33-.421l9.41-7.23c.31-.227.58-.197.83.09l.23.25c.08.093.08.18-.01.26-7.1 7.26-10.63 17.45-.56 24.44 1.84 1.28 4.35 1.44 6.43.65 16.95-6.4 3.64-25.73 13.34-36.02 7.06-7.5 17.22-3.69 21.98 3.96 1.86 2.993 3.09 6.183 3.68 9.57q.285 1.56-.96 2.42c-2.48 1.74-4.94 3.48-7.37 5.22a.3.3 0 0 1-.1.045.26.26 0 0 1-.2-.032.3.3 0 0 1-.08-.073l-.16-.23a.64.64 0 0 1-.11-.401.58.58 0 0 1 .18-.369M760.45 735.13q-8.25-14.15-10.86-19.51-10.85-22.28-16.56-37.36-5.44-14.35-13.9-41.25-3.17-10.1-13.69-46.64c-.59-2.04-1.78-4.03-3.04-5.76a369 369 0 0 0-13.04-16.91q-8.19-10.03-18.91-20.12-.35-.33-.78-.11-6.49 3.24-15.64 6.32c-13.78 4.65-29.04 6.66-41.78.55q-6.25-3-11.28-7.5-5.74-5.15-11.37-11.43-1.23-1.37.54-.86 13.25 3.88 28.6 1.51 12.49-1.94 23.88-4.79c2.96-.74 6.41-.67 9.47-.38q.7.06.27-.49a179 179 0 0 0-3.22-4.11 72 72 0 0 1-3-4q-5.76-8.27-11.4-16.69-10.57-15.77-11.36-35.37-.48-11.75 1.82-24.57a569 569 0 0 1 5.72-27.97q.42-1.79 1.09-.08c2.41 6.15 4.5 12.55 6.97 18.42 1.76 4.18 3.45 8.52 5.59 12.43q4.33 7.95 9.79 16.95c6.31 10.41 7.81 21.33 6.72 33.08a134.6 134.6 0 0 1-5.27 26.88q-.3 1 .43 1.73l8.38 8.48q.58.58.61-.24.16-6.31 1.44-11.01 7.06-25.97 18.15-53.15.74-1.81.86.15 1.12 19.27 3.7 37.37c1.04 7.28 1.92 13.95 1.24 21.2q-.89 9.38-8.05 15.88a319 319 0 0 1-3.63 3.25q-.44.4-.04.84 12.3 13.58 22.2 29.85a30 30 0 0 1 2.29 4.63l.013.02.022.011h.024l.021-.011q.1-.08.21-.14.05-.03.04-.09-3.6-14.49-5.02-26.63c-2.07-17.75-.39-36.43 2.95-54.71q3.75-20.53 8.13-39.09.11-.49-.37-.62-4.11-1.13-6.38-3.19c-8.64-7.87-16.37-14.67-25.15-23.76-4.87-5.03-7.65-10.16-7.59-16.75q.06-6.65.26-13.28c.26-8.12-3.2-17.72-6.19-25.95q-.23-.64.36-.29 6.42 3.91 10.23 10.63c3.38 5.94 6.42 12.02 11.45 16.82 6.13 5.84 11.23 11.86 11.98 20.63q.82 9.75.15 23.09c-.007.154.02.307.079.45q.09.218.261.38 3.27 3 5.84 6.27 1.87 2.36 4.99 3.66.56.23.69-.35a461 461 0 0 1 8.68-33.26q.27-.9-.48-1.49-4.87-3.79-7.2-10.02-4.27-11.41-5.68-21.96-2.63-19.61 10.08-31.74 4.43-4.22 10.17-8.89c8.17-6.64 17.26-12.19 26.31-17.31q3.71-2.1 5.86 1.57.79 1.35 1.44 6.36.91 7.11 1.74 15.01c.65 6.18.49 11.97.47 17.99q-.02 6.1-1.16 12.79-2.68 15.72-12.43 26.9-3.95 4.53-10.09 7.73c-4.85 2.53-9.89 4.67-15.2 3.37a.773.773 0 0 0-.93.56 451 451 0 0 0-4.45 18.67q-5.59 25.76-10.26 53.01a411 411 0 0 0-3.96 29.24q-2.38 24.29 3.77 51.05.23 1.04.42-.01c.09-.5-.07-1.02.03-1.53q5.57-30.45 26.81-53.86a22.5 22.5 0 0 1 3.26-2.95q.48-.35.09-.81-5.73-6.73-6.36-14.66-.71-8.98 2.39-19.37 5.89-19.73 12.65-37.53.25-.64.49.01 1.65 4.43 3.28 8.7c3.12 8.2 7.59 16.26 9.88 24.12q2.55 8.72.42 18.5c-.19.82-.68 1.24-.91 1.97q-.22.72.25.14a13.7 13.7 0 0 0 1.75-2.84 138 138 0 0 0 3.38-7.92c5.2-13.26 17.23-16.55 30.07-18.74q33.36-5.71 68.35-2.63.53.05.26.51-8.23 13.87-17.05 25.06-1.84 2.35-6.87 7.34c-7.18 7.12-15.94 12.36-25.68 15.15-6.97 2-14.68 2.1-21.86.7q-15.42-3-28.95-11.26-.52-.31-.95.11c-1.94 1.89-3.86 3.94-5.99 5.57q-7.92 6.07-15.54 11.73a12.7 12.7 0 0 0-1.92 1.73q-.52.6.24.38c15.57-4.49 28.64.41 39.69 11.14a1194 1194 0 0 1 18.18 18.06.422.422 0 0 1-.057.631.4.4 0 0 1-.223.079q-13.11.69-25.61.43-7.41-.16-14-1.23-17.5-2.86-31-13.31a.5.5 0 0 0-.372-.096.48.48 0 0 0-.318.206q-11.67 17.81-16.65 37.68c-.42 1.7-.55 3.45-.16 5.17q7.15 31.06 12.52 49.86 10.79 37.79 29.91 72.4.26.48.18-.06c-.49-3.43-1.3-6.79-1.35-10.24a309 309 0 0 0-.23-7.6q-.15-3.44.38-8c.42-3.56.65-7.23 1.42-10.63q3.73-16.43 11.56-30.21a1.38 1.38 0 0 0-.08-1.49q-4.97-6.87-10.13-14.23c-7.09-10.08-6.56-21.44-3.75-33q2.77-11.4 7.53-22.7a.44.44 0 0 1 .406-.273.47.47 0 0 1 .424.263c4.63 9.79 12.35 18.42 16.51 27.77q3.74 8.4 3.68 19.1-.03 3.9 1.51.31 5.16-12.07 10.68-24.68 6.07-13.83 17.31-24.1 9.01-8.23 18.79-14.23a459 459 0 0 1 24.67-14.07q.48-.26.53.29 1.35 15.98-.23 31.53-.75 7.43-2.85 13.66c-5.46 16.25-23.65 29.33-39.07 34.7q-13.35 4.65-26.47 2.85a.76.76 0 0 0-.78.33c-5.93 8.09-12.04 16.13-16.76 24.76q-.53.96.41.39c1.9-1.16 3.8-2.11 5.97-2.73 12.85-3.69 24.85-1.3 36.27 4.85q19.6 10.55 34.94 25.94 1.13 1.14-.47.96-17.41-1.95-33.86-1.25c-11.71.5-20.87-.13-30.29-6.2-5.87-3.79-12.94-7.43-16.89-13q-.34-.48-.58.05-1.05 2.28-1.97 4.83-8.62 23.98-5.91 48.48.13 1.16.9 2.5 7.11 12.31 14.12 23.79 16.04 26.28 45.63 70.68.13.2-.07.34l-.21.15q-.2.15-.35-.05c-18.86-24.75-35.23-46.31-50.07-71.1a3 3 0 0 0-1.07-1.06q-17.63-10.33-37.83-14.94-.64-.15-1.21.2-7.2 4.36-13.68 5.57-7.08 1.33-15.78.65a.94.94 0 0 0-.81.32c-10.34 11.4-26.01 18.02-41.3 19.03q-6.59.43-13.64.03c-9.55-.55-19.46-3.11-28.34-6.9q-16.03-6.85-31.42-18.07a1597 1597 0 0 1-11.57-8.5q-.92-.68.22-.63c5.45.24 10.48-.87 15.35-3.22a272 272 0 0 1 12.25-5.54q7.47-3.17 15.1-1.46 8.84 1.97 16.68 2.03 7.88.06 16.03-.51 5.01-.36 10.41-.21c4.51.12 9.24.12 13.6.89q7.13 1.27 14.61 4.34c5.62 2.32 11.83 6.39 12.96 12.64q.11.56.67.66 13.5 2.23 26.98-1.46 1.05-.29 0-.59a406 406 0 0 1-7.42-2.2c-7.75-2.38-15.16-7.19-20.99-12.47q-9.58-8.67-20.32-19.25-29.96-29.54-40.45-71.02-3.17-12.54-5.38-26.18-.16-.94.72-.55 15.2 6.74 28.37 14.73c18.52 11.24 33.2 26.62 40.02 47.47q4.75 14.55 8.09 33.58c1.36 7.76 1.55 15.57.61 23.3a1.6 1.6 0 0 0 .78 1.58c5.36 3.18 10.6 5.37 16.81 7.14 13.91 3.98 26.85 9.16 38.8 17.6q.6.42.23-.21m-29.61-341.75q.14.05.11.2l-8.57 33.17q-.21.81.61.63a.8.8 0 0 1 .65.15c2.26 1.69 8.82-.34 11.27-1.47 10.77-4.97 16.18-13.67 19.01-25.12 2.47-9.98 3.7-19.9 4.61-30.17q1.41-15.8-1.09-29.23a8.4 8.4 0 0 0-1.06-2.78 1.92 1.92 0 0 0-1.203-.88 1.96 1.96 0 0 0-1.477.24q-10.66 6.65-21.22 15.85a496 496 0 0 0-10.12 9.06c-5.39 4.96-9.65 10.95-11.04 18.2-2.04 10.66.41 21.62 2.55 32.09q1.3 6.36 4.95 11.63.7 1.01 1.07-.17a676 676 0 0 1 10.62-31.44q.03-.05.08-.04zm-36.8 32.65c-.76-4.16-3.42-8.27-6.33-11.21q-6.7-6.75-10.87-16.39c-1.97-4.53-4.51-10.11-8.1-13.56q-.67-.63-.33.22c2.72 6.8 5.86 13.35 6.29 20.67.48 7.95-.82 17.69 4.42 24.03q6.25 7.57 14.55 15.83a23 23 0 0 1 3.4 4.29q.36.58.41-.1c.2-2.59-.82-4.88-1.09-7.42a216 216 0 0 0-2.35-16.36m-63.37.63q-3.74 15.35-4.33 29.64c-.62 14.89 2.01 31.16 10.28 43.44a521 521 0 0 0 11.28 16.06q.42.58.5-.14.86-8.26.43-14.82c-.54-8.32-4.08-15.86-8.12-23.56q-6.04-11.53-7.88-25.01-1.49-10.84.04-25.34a1.74 1.74 0 0 0-.12-.86c-.36-.93-.26-2.13-1.03-2.85q-.42-.38-.48.19a24.5 24.5 0 0 1-.57 3.25m6.99 14a70 70 0 0 0-2.04-5.78q-.25-.63-.16.04 2.1 14.1 4.16 27.06 1.29 8.12 3.68 15.33c1.86 5.64 5.06 10.9 7.69 16.37 3.93 8.19 2.25 15.54-.07 24.02a3.95 3.95 0 0 0 .73 3.52l2.07 2.57q1.16 1.44 1.46-.38 1.84-11.32 2.48-24.01c.45-8.78-.28-19.42-4.16-26.69-3.88-7.28-8.59-14.28-12.07-22.03a87 87 0 0 1-3.77-10.02m108.31 44.09c1.35 3.44.97 6.54.22 10.01-.6 2.79.99 5.59 2.14 8.05q2.46 5.31.53 10.67-.25.71.35.25c1.19-.91 2.29-1.87 3.5-2.77 6.43-4.75 4.76-19.65 3.24-26.45-2.05-9.14-4.69-18.9-8.49-27.63q-.5-1.15-.76.07c-2.64 12.46-5.6 24.84-9.23 36.81-2.82 9.29-3.53 18.59 1.07 27.25q.33.63.89.19l6.03-4.78q.48-.38.4-.99c-.67-5.07-1.95-9.86-1.47-14.98.53-5.73-4.46-10.79.86-15.86q.48-.46.72.16m75.64 6.63q3.24-.54.62 1.42c-5.31 3.98-11.83 5.34-18.52 4.99-6.88-.37-14.11 2.16-21.04 4.09-6.45 1.79-12.87 3.69-19.07 6.27q-.82.34.01.66a435 435 0 0 0 11.86 4.38 82.4 82.4 0 0 0 20.45 4.39c28.83 2.45 49.54-22.45 64.2-43.98q.33-.48-.25-.53-21.87-1.82-39.67.42-16.79 2.11-32.52 6.53c-4.99 1.41-12.1 4.13-15.03 8.69q-3.66 5.69-6.46 14.7-.22.71.32.2c3.81-3.51 8.45-5.03 13.49-6.12 5.43-1.16 11.39-.88 16.85-1.15 3.33-.16 6.56-1.1 9.77-2.04a64 64 0 0 1 7.36-1.65q3.76-.63 7.63-1.27m-136.57-3.03q-.22-1.59-.39-3.15-.02-.17-.19-.15h-.01q-.19.02-.18.21a73.6 73.6 0 0 1-2.11 24.24q-1.23 4.82-2.04 9.5c-.52 3.02-.37 6.11-.3 9.17.15 5.96-2.33 11.13-6.4 15.5q-.23.25 0 .49l3.89 4.18q.28.3.53-.03 3.44-4.54 4.35-5.85c3.25-4.69 4.45-10.37 4.34-16.26q-.17-8.44.1-15.82a93 93 0 0 0-.07-7.55 113 113 0 0 0-.65-7.81q-.35-3.01-.87-6.67m-6.61 14.21c-2.79 9.41-6.63 18.22-9.79 27.45q-1.09 3.16-1.39 7.06a1.66 1.66 0 0 0 .46 1.29l3.52 3.63a.56.56 0 0 0 .519.151.53.53 0 0 0 .391-.361 575 575 0 0 0 5.6-18.52q.21-.74.31-1.55.27-2.17.28-1.59.002.002.005-.007l.007-.028.005-.041.003-.044.24-17.42a.1.1 0 0 0-.002-.031.082.082 0 0 0-.128-.043.1.1 0 0 0-.03.054m90.33 46.2c-4.49-.07-8.36-1.27-12.15-3.62q-3.77-2.34-8.25-2.61a61.6 61.6 0 0 1-17.73-3.76 1.43 1.43 0 0 0-.916-.026 1.4 1.4 0 0 0-.734.536l-1.65 2.39q-.58.85.31 1.36 6.8 3.89 13.65 6.13a265 265 0 0 0 24.13 6.63q12.34 2.78 24.81.85.61-.09.17-.52a20 20 0 0 0-2.58-2.14 45 45 0 0 1-5.73-4.77c-2.63-2.58-5.48-4.72-8.44-7.21q-3.13-2.63-6.99-5.1c-8.99-5.77-20.09-7.51-30.18-4.93q-2.2.57-3.34 2.69-.34.62.37.66c6.15.27 11.54 2.86 17.02 5.41q3.07 1.43 6.95 1.76c2.95.25 6.86 1.5 9.49 3.43q1.03.76 2.18 1.41 2.64 1.49-.39 1.43m-99.69-2.42q.26-.07.05-.25-6.06-5.17-11.82-10.69c-3.03-2.92-8.33-1.8-12.01-.91a92 92 0 0 0-6.59 1.85q-10.47 3.34-20.72 3.25-11.15-.1-22.74-2.2-.98-.18-.2.44 4.56 3.62 9.78 7.27 6.08 4.25 10.56 5.69 7.3 2.36 14.26 2.16c5.05-.15 10.15-.42 15.11-1.25q12.77-2.13 24.32-5.36m125.53 47.77c-3.93 9.53-7.52 19.61-12.26 28.87a.49.49 0 0 0 .015.486.49.49 0 0 0 .425.234c19.67-.13 37.56-9.06 51.25-22.73q8.22-8.21 11.21-18.68 4.92-17.25 4.17-37.7-.02-.51-.48-.28-12.24 6.34-22.37 13.3-9.73 6.7-18.28 15.58-8.85 9.21-13.68 20.92m-32.43 42.17c.63 1.29 1 2.64 1.47 3.96q.3.82.78.09 4.2-6.43 9.31-13.42 1.46-2 1.27-4.11c-1.55-16.74-8.88-32.69-17.44-46.99a.25.25 0 0 0-.241-.113.22.22 0 0 0-.122.057.22.22 0 0 0-.067.116q-3.06 12.04-4.41 23.84-.74 6.42-.42 12.27c.46 8.59 6.05 16.48 9.87 24.3m-132.1-40.1a.25.25 0 0 1 .184-.118.2.2 0 0 1 .108.015.2.2 0 0 1 .088.063c2.32 2.59 4.36 5.33 6.73 7.81 6.52 6.85 13.5 13.26 19.65 20.75 5.21 6.36 10.6 12.56 15.11 19.18q6.81 10.03 14 22.15 5.82 9.81 8.67 17.34 4.24 11.21 6.55 23.89.23 1.24 1.33 1.59.53.17.55-.38.25-11.03-3.16-24.96-4.2-17.16-8.38-29.32c-7.35-21.39-22.16-37.49-41.25-49.91q-10.33-6.72-21.99-12.04a.1.1 0 0 0-.064-.011.1.1 0 0 0-.061.024.12.12 0 0 0-.045.117q5.72 33.71 23.46 62.41c6.4 10.38 14.24 19.51 22.85 28.3q12.62 12.88 24.91 23.54.84.73.46-.31c-1.57-4.27-3.81-8.08-5.53-12.39q-4.23-10.63-9.06-23.41-5.23-13.84-16.6-25.66-17.35-18.05-30.59-34.78-5.08-6.41-7.97-13.12a.81.81 0 0 1 .05-.77m133.5 60.38q-1.63-.24-.07-.78 11.3-3.87 22.26-.58c6.99 2.1 15 7.69 22.53 9.81 3.98 1.12 8.3 1.61 12.08 3.38q1.63.77 3.6 1.41 2.78.91 5.51 3.23.07.06.13-.01l.17-.2q.16-.18-.01-.35-.9-.86-1.89-1.58-11.73-8.44-24.95-15.15-9.82-4.98-19.88-6.93-8.68-1.68-16.19 1.1-3.12 1.15-4.88 5.49a2.36 2.36 0 0 0-.18 1.09q.04.54-.28.99a.81.81 0 0 0 .07 1.02q1.94 2.07 4.2 3.33c4.73 2.63 9.72 4.38 14.5 6.78q9.73 4.9 21.21 6.18a235 235 0 0 0 31 1.39q.38-.01 1.74-.35.27-.07.21-.34l-.06-.27a.56.56 0 0 0-.215-.34.54.54 0 0 0-.385-.1q-4.12.45-8.28-.52a57 57 0 0 1-14.5-5.51c-2.87-1.56-5.81-3.19-8-3.77q-8.42-2.21-17.3-4.53c-7.3-1.91-14.66-2.76-22.14-3.89m-162.67 62.5q-4.74-.82.05-1.23 16.25-1.37 33.47-.61 11.79.52 23.19-.54c3.73-.35 8.2-.22 11.64.91q8.76 2.89 19 5.28a.89.89 0 0 0 .845-.258.88.88 0 0 0 .195-.862c-1.06-3.35-5.47-7.15-8.14-8.79-7.89-4.83-15.68-6.85-25.25-6.96q-8.29-.1-14.52.96-8.73 1.48-16.18 2.17-7.87.73-17.05-1.1c-12.59-2.51-23.76 7.11-36.18 8.06q-1.05.08-.24.75 19.88 16.41 44.11 23.19c9.63 2.69 19.31 4.05 28.71 3.55q24.47-1.31 42.23-15.11.68-.53-.16-.74a104.4 104.4 0 0 1-18.41-6.58c-2.1-.98-4.84-1.72-7.17-1.97q-8.99-.98-19.35.52-20.29 2.94-40.79-.64m-303.38-52.44a1576 1576 0 0 0-7.13 17.83c-2.49 6.35-4.32 12.88-5.83 19.31-1.17 4.97.84 9.17 6.06 10.09q8.62 1.52 17.11 1.11 2.51-.12 4.45 1.15.44.29.62.78c1.9 5.11 1.35 11.6-5.83 11.24q-33.15-1.65-60.55.05c-5.83.36-7.15-5.01-6.05-9.6q.81-3.36 4.36-3.44c5.86-.13 12.27-.24 16.56-4.57 3.47-3.51 6.37-8.97 8.45-13.86q28.65-67.52 56.31-133.18.38-.91.89-3.66c.91-4.95-1.29-8.64-5.97-10.53q-6.43-2.6-14.3-4.07c-3.78-.71-3.37-4.68-3.13-7.5.25-2.75 2.96-4.43 5.44-4.55q13.03-.66 25.27 1.77c17.38 3.44 24.98 18.28 30.98 33.1q22.31 55.11 47 115.96 3.02 7.44 6.2 14.75c1.3 3 2.87 5.56 4.52 8.31 4.27 7.15 10.74 7.92 18.44 8.16a2.31 2.31 0 0 1 2.11 1.51c1.09 2.93 1.61 6.36-.23 9.01q-1.79 2.57-4.6 2.41c-23.56-1.27-45.68-1.03-69.67-.02q-2.56.11-3.89-.76c-3.71-2.41-3.41-7.85-1.44-11.27q.27-.48.8-.58c1.46-.28 2.83-.6 4.35-.56 5.33.13 18.07-.3 18.01-8.25-.03-5.3-2.05-11.26-4.08-16.24a11268 11268 0 0 0-9.69-23.75q-.21-.51-.76-.51h-74.25q-.38 0-.53.36m6.16-14.04a.5.5 0 0 0-.034.225.48.48 0 0 0 .244.368.5.5 0 0 0 .22.057l62.57-.02a.47.47 0 0 0 .469-.416.46.46 0 0 0-.029-.224l-30.5-77.68a.46.46 0 0 0-.17-.223.46.46 0 0 0-.535-.006.47.47 0 0 0-.175.219zM91 638.42q.02 27.09-.02 54.32c-.01 5.49.65 15.09 5.68 18.54q5.21 3.56 11.27 3.64 17.08.23 34.05-.03 4.86-.07 10.05-1.61c8.32-2.46 12.07-8.4 14.95-16.01a212 212 0 0 0 5.41-16.21c.78-2.74 2.55-4.94 5.52-5.51 5.56-1.07 13.66.85 12.52 8.17q-3.06 19.59-5.76 36.59c-.42 2.6-1.66 5.79-4.55 6.41q-2.42.52-4.46.52-52.69-.03-104.25.08-13.49.03-31.33.82-2.28.1-3.65-.62c-3.21-1.68-3.19-4.95-2.82-8.26q.44-3.88 4.29-4.01c7.26-.26 14.71-.29 19.31-6.7q1.89-2.63 2.64-7.72c.63-4.31.89-8.73.89-13.04q-.02-58.18-.01-115.39c.01-3.8-.46-7.56-.88-11.31-1.43-12.76-12.32-14.03-22.62-14.14q-2.38-.03-3.1-2.1c-1.47-4.27-1.02-11.05 5.11-10.81q18.65.72 31.25.82 48.82.39 95.93-.01 3.89-.03 6.86.44 3.25.51 4.53 3.96a11.1 11.1 0 0 1 .69 3.64q.41 20.6.83 41.51.05 2.62-1.68 4.06-4.37 3.65-10.68 2.02c-2.95-.76-4.99-2.53-5.49-5.66a175 175 0 0 0-3.25-15.81c-3.96-15.53-11.29-21.64-27.77-21.88q-17.61-.26-38.95-.09-.51 0-.51.51v76.42q0 .5.51.5 25.54 0 54.14-.01c3.17 0 4.84 3.48 5.04 6.29.22 3.09-1.55 7.02-5.06 7.03q-27.71.01-53.99-.01-.65 0-.64.65m955.93-86.58c-2.42-2.23-4.77-3.67-8.03-4.13-3.3-.467-6.53-.697-9.7-.69-1.52.01-2.86-.34-3.59-1.84-1.56-3.24-1.47-6.26.28-9.06 1.19-1.89 3.4-2.26 5.43-2.15 9.95.527 20.03.793 30.25.8q1.845 0 3.6.19c1.71.18 3.38-.17 5.06-.17q15.855-.01 33.51-.86 3.195-.16 4.68 2.32c1.8 3.03 2.33 10.56-2.89 10.64-9.51.16-19.66.9-22.08 12.1q-1.41 6.52-1.41 15.76c.01 37.993-.02 75.66-.08 113-.01 8.693-.26 15.353-.74 19.98-1.63 15.77-5.56 31.76-13.41 45.59-9.83 17.31-26.22 27.77-45.31 32.29-6.41 1.52-9-5.96-7.02-10.79.17-.42.49-.764.89-.97 2.42-1.267 4.79-2.493 7.1-3.68 21.05-10.79 26.13-33.83 27.56-55.38.65-9.68 1-18.73 1.06-27.15q.3-43.67.03-115.69c-.01-4.66-.31-9.86-1.67-14.46-.63-2.18-1.81-4.063-3.52-5.65m222.07-4.91c.02 47.693.01 94.413-.02 140.16-.01 5.593.4 10.81 1.21 15.65.55 3.32 2.29 6.23 5.2 8.73 4.22 3.62 11.08 3.5 16.28 3.68 6.32.21 5.88 11.73.65 12.73-1.01.193-2.07.267-3.19.22q-35.895-1.56-68.52-.01c-2.97.14-5.02-.067-6.17-.62q-3.3-1.61-3.06-6.49c.1-1.96.62-3.583 1.57-4.87.18-.24.42-.387.71-.44 2.64-.46 5.53-.73 8.66-.81 6.15-.16 12.89-3.49 14.56-9.85a55 55 0 0 0 1.82-13.88c.07-46.113.08-94.2.01-144.26 0-.38-.19-.573-.58-.58q-10.68-.11-21.21.03c-12.6.18-21.06 6.49-24.43 18.7-1.86 6.733-3.21 13.323-4.04 19.77-.45 3.55-3.02 4.91-6.14 5.8-5.48 1.56-12.3.32-12.15-6.58.32-14.453.63-28.323.94-41.61.11-4.92 2.63-7.38 7.55-7.38 46.69-.027 96.88-.03 150.56-.01 3.03 0 5.11 1.143 6.22 3.43q.825 1.66.96 6.25.705 22.83 1.14 40.31c.06 2.16-1.12 3.88-2.99 4.88-3.21 1.713-6.71 1.83-10.52.35q-4.125-1.6-4.74-5.54-1.575-10.1-3.81-18.38-1.245-4.65-3.84-9.22c-4.57-8.04-13.56-10.82-22.47-10.82-6.68-.007-13.17-.017-19.48-.03-.45 0-.68.23-.68.69M354.42 1027c-9.85-2.55-13.99-14.61-14.89-23.48-1.33-13.15 1.36-36.9 19.45-37.09q8.27-.09 13.26 5.85c8.65 10.33 8.66 28.36 5.01 40.26-3.19 10.42-11.45 17.4-22.83 14.46M366 975.8c-5.1-4.99-12.69-3.26-16.24 2.67-4.95 8.26-5.29 19.58-3.39 28.78 1.19 5.75 4.14 12.48 10.39 13.99 7.82 1.89 12.44-5.36 14.26-11.66 2.6-8.99 2.353-18.01-.74-27.05q-1.3-3.83-4.28-6.73m208.04 50.87c-9.51 3.15-17.54-.96-21.99-9.67-5.57-10.89-5.66-29.04.22-40.25q6.59-12.58 20.14-9.81c7.02 1.44 11.81 8.45 13.7 14.97 3.04 10.533 2.933 20.94-.32 31.21-1.79 5.65-5.97 11.63-11.75 13.55m5.07-15.21q5.09-14.31-.28-29.44c-2.35-6.61-8.64-11.39-15.82-7.93-3.3 1.59-5.37 5.3-6.51 8.57q-4.94 14.21-.05 29.03c2.28 6.93 8.4 12.22 15.83 8.73 3.26-1.53 5.65-5.63 6.83-8.96m68.06-5.62-.24.12c-.19.09-.396.12-.6.11-11.25-.49-20.37-7.91-20.38-19.54q-.02-8.27 5.6-14.12c12.06-12.56 33.87-4.45 34.49 13.07q.27 7.58-4.47 13.33a5298 5298 0 0 1-23.16 27.98.52.52 0 0 1-.42.2q-6.53 0-7.67-.06c-.007 0-.013 0-.018-.01-.006 0-.01-.01-.013-.01-.003-.01-.005-.01-.004-.02 0-.01.002-.01.005-.02 6.087-7.31 11.81-14.21 17.17-20.68.507-.61.41-.73-.29-.35m12.5-19.72a13.74 13.74 0 1 0-27.479 0 13.74 13.74 0 0 0 27.479 0m115.04 34.71 26.25.02q.37 0 .37.36l.03 5.41c0 .25-.12.37-.36.37l-40.97-.01a.3.3 0 0 1-.18-.06.34.34 0 0 1-.119-.14.34.34 0 0 1 .069-.36 9150 9150 0 0 0 29.75-29.94q7.07-7.15 3.34-15.78c-3.18-7.35-12.5-10.27-19.35-6.18q-6.97 4.16-7.04 12.32 0 .27-.27.27l-5.5-.01q-.35 0-.35-.34c-.12-11.46 8.77-20.35 20.03-20.39 10.88-.04 20.05 8.39 20.26 19.38q.16 8.36-5.4 14.01c-6.8 6.91-13.707 13.81-20.72 20.68a.2.2 0 0 0-.061.12.23.23 0 0 0 .013.13c.017.04.046.07.083.1.037.02.08.04.125.04m83.72 6.17c-9.77-2.51-13.9-14.37-14.86-23.21-1.5-13.77 1.54-38.18 20.57-37.35 7.48.32 12.39 4.71 15.5 11.14 4.87 10.07 4.83 23.4 1.95 33.85-2.99 10.87-11.19 18.65-23.16 15.57m11.59-51.19c-5.12-5.01-12.72-3.27-16.28 2.69-4.7 7.85-5.18 18.35-3.66 27.31q1.08 6.3 4.21 10.89c4.21 6.15 12.51 6.58 17.07.4 1.633-2.22 2.843-4.69 3.63-7.42q3.92-13.56-.67-27.07-1.32-3.88-4.3-6.8m70.12 45.02 26.09.02a.4.4 0 0 1 .276.11.42.42 0 0 1 .114.28v5.38c0 .25-.123.37-.37.37l-40.96-.01a.4.4 0 0 1-.184-.05.34.34 0 0 1-.144-.34.36.36 0 0 1 .088-.17c9.593-9.63 19.57-19.67 29.93-30.11 9.87-9.95 1.72-25.65-11.82-23.44-6.71 1.1-11.51 7.35-11.39 13.93q0 .3-.3.3l-5.5.01a.31.31 0 0 1-.31-.3q-.27-8.79 6.1-14.84c12.77-12.13 34.27-3.36 34.17 14.4-.04 6.64-2.79 11-7.64 15.78a5082 5082 0 0 0-18.38 18.15.3.3 0 0 0-.082.16.27.27 0 0 0 .021.17c.024.06.065.11.116.14q.08.06.175.06m105.09-5.77-.01 11.63c0 .08-.03.16-.09.21-.05.06-.13.09-.21.09l-5.83-.01c-.08 0-.16-.03-.21-.09a.27.27 0 0 1-.09-.21l-.01-11.62c0-.08-.03-.16-.09-.21a.27.27 0 0 0-.21-.09l-32.83.01c-.05 0-.11-.01-.16-.04a.4.4 0 0 1-.11-.12c-.02-.05-.04-.1-.03-.16 0-.05.02-.1.05-.15l31.03-46.91a.4.4 0 0 1 .11-.096.3.3 0 0 1 .14-.034l8.15.01c.04 0 .08.008.11.023.04.015.07.037.1.065s.05.061.07.097c.01.037.02.076.02.115l.1 40.63c0 .08.03.16.09.21.05.06.13.09.21.09l6.92-.02c.08 0 .16.03.21.09.06.05.09.13.09.21v5.69c0 .08-.03.16-.09.21-.05.06-.13.09-.21.09l-6.92-.01c-.08 0-.16.03-.21.09-.06.05-.09.13-.09.21m-28.94-7.09c-.03.05-.05.11-.06.17 0 .06.01.12.04.18.03.05.07.1.13.13.05.03.11.05.17.05l21.86-.01c.09 0 .18-.04.24-.1s.1-.15.1-.24l.05-33.15a.3.3 0 0 0-.07-.206.33.33 0 0 0-.18-.123.32.32 0 0 0-.21.01.35.35 0 0 0-.17.139zM444.85 973.7l-27.16.01a.3.3 0 0 1-.3-.3l-.02-5.6a.3.3 0 0 1 .3-.3l36.77.01a.3.3 0 0 1 .27.42l-26.01 58.88a.31.31 0 0 1-.28.18l-6.16-.04a.4.4 0 0 1-.144-.03.4.4 0 0 1-.111-.1.4.4 0 0 1-.049-.14.3.3 0 0 1 .024-.15l23.14-52.42a.3.3 0 0 0-.022-.282.3.3 0 0 0-.248-.138m-183.7 31.27H84.91c-.193 0-.35.16-.35.35v4.3c0 .19.157.35.35.35h176.24c.193 0 .35-.16.35-.35v-4.3c0-.19-.157-.35-.35-.35m1045.61 0h-176.14c-.28 0-.5.22-.5.5v4c0 .28.22.5.5.5h176.14c.28 0 .5-.22.5-.5v-4c0-.28-.22-.5-.5-.5m-806.04 22.92a4.98 4.98 0 1 0-.001-9.961 4.98 4.98 0 0 0 .001 9.961m210.5-.01c2.745 0 4.97-2.23 4.97-4.97s-2.225-4.97-4.97-4.97a4.973 4.973 0 0 0-4.97 4.97c0 2.74 2.225 4.97 4.97 4.97" fill="#000"/></g><defs><clipPath id="a"><path fill="#fff" d="M0 0h1354v1038H0z"/></clipPath></defs></svg>